<svg width="224" height="207" viewBox="0 0 224 207" fill="none" xmlns="http://www.w3.org/2000/svg">
<path fill-rule="evenodd" clip-rule="evenodd" d="M117.201 60.8386L146.696 76.4429C146.696 76.4429 148.582 77.2241 152.129 77.2241C154.708 77.2241 154.457 80.3469 154.457 80.3469C154.457 80.3469 152.74 80.5107 151.353 81.9054C149.024 84.247 145.918 80.3469 145.918 80.3469L124.962 71.7636C119.219 71.1007 114.852 69.1399 117.201 60.8386Z" fill="#AB886B"/>
<path fill-rule="evenodd" clip-rule="evenodd" d="M150.576 81.9073L155.31 83.8919L156.786 81.9073L152.28 79.6426C152.175 79.5886 152.062 79.5526 151.945 79.5361C151.207 79.4276 149.024 79.5657 150.576 81.9073Z" fill="#565A5B"/>
<path fill-rule="evenodd" clip-rule="evenodd" d="M101.522 26.5033L97.7966 35.0886L107.796 39.3615L111.768 29.6261L101.522 26.5033Z" fill="#C19571"/>
<path fill-rule="evenodd" clip-rule="evenodd" d="M135.829 159.159C135.829 159.159 132.285 163.841 134.832 169.303H145.918C146.658 169.984 154.86 164.995 157.443 159.388C158.337 154.476 149.8 161.499 149.8 161.499L142.814 158.38L135.829 159.159Z" fill="#929B9B"/>
<path fill-rule="evenodd" clip-rule="evenodd" d="M20.9568 125.605L33.1737 134.275C33.3005 134.366 33.4442 134.43 33.5962 134.463C33.7483 134.497 33.9055 134.499 34.0586 134.471C34.2117 134.442 34.3574 134.383 34.4872 134.297C34.6169 134.211 34.7279 134.1 34.8135 133.97L35.0701 133.585C35.239 133.329 35.3014 133.018 35.2439 132.716C35.1864 132.415 35.0136 132.149 34.7622 131.973L25.9138 125.812C25.719 125.678 25.4877 125.605 25.2508 125.605H20.9588H20.9568Z" fill="#565A5B"/>
<path fill-rule="evenodd" clip-rule="evenodd" d="M19.1257 145.114H24.061L17.0754 158.378H11.6685C11.5013 158.378 11.3373 158.332 11.1938 158.247C11.0504 158.161 10.9328 158.038 10.8535 157.891C10.7743 157.743 10.7363 157.578 10.7436 157.411C10.7508 157.244 10.8031 157.082 10.8949 156.942L18.3541 145.532C18.4376 145.404 18.5517 145.298 18.686 145.225C18.8204 145.152 18.9708 145.114 19.1237 145.114" fill="#F76B6D"/>
<path fill-rule="evenodd" clip-rule="evenodd" d="M81.3646 179.169C81.3646 194.538 68.9721 206.998 53.6827 206.998C38.3933 206.998 25.9988 194.538 25.9988 179.169C25.9988 163.797 38.3913 151.337 53.6827 151.337C68.9701 151.337 81.3646 163.797 81.3646 179.169ZM223.474 179.169C223.474 194.538 211.082 206.998 195.792 206.998C180.503 206.998 168.108 194.538 168.108 179.169C168.108 163.797 180.501 151.337 195.792 151.337C211.08 151.337 223.474 163.797 223.474 179.169Z" fill="#565A5B"/>
<path fill-rule="evenodd" clip-rule="evenodd" d="M73.3549 179.169C73.3549 190.092 64.5479 198.947 53.6807 198.947C42.8155 198.947 34.0066 190.09 34.0066 179.169C34.0066 168.244 42.8155 159.388 53.6807 159.388C64.5479 159.388 73.3549 168.244 73.3549 179.169ZM215.464 179.169C215.464 190.092 206.657 198.947 195.79 198.947C184.925 198.947 176.118 190.09 176.118 179.169C176.118 168.244 184.925 159.388 195.792 159.388C206.657 159.388 215.466 168.244 215.466 179.169" fill="#929B9B"/>
<path fill-rule="evenodd" clip-rule="evenodd" d="M174.636 85.8094C174.636 90.1178 171.163 93.6115 166.875 93.6115C162.589 93.6115 159.114 90.1198 159.114 85.8094C159.114 81.499 162.587 78.0052 166.875 78.0052C171.161 78.0052 174.636 81.497 174.636 85.8094Z" fill="#BDECFF"/>
<path fill-rule="evenodd" clip-rule="evenodd" d="M116.233 125.605H58.4029C57.7647 125.603 57.133 125.476 56.544 125.23C55.955 124.984 55.4202 124.625 54.9702 124.172C54.5202 123.72 54.1637 123.183 53.9211 122.593C53.6785 122.003 53.5546 121.371 53.5564 120.733V120.334C53.5564 117.643 55.7271 115.461 58.4029 115.461H116.233C117.523 115.465 118.758 115.98 119.667 116.894C120.576 117.808 121.085 119.045 121.082 120.334V120.733C121.082 123.423 118.911 125.605 116.233 125.605Z" fill="#00ADEF"/>
<path fill-rule="evenodd" clip-rule="evenodd" d="M41.1362 125.605H114.126C114.126 125.605 86.9294 137.313 104.005 163.841C104.005 163.841 108.662 169.305 116.425 169.305H146.696C146.696 169.305 162.996 163.061 163.771 136.53C163.771 136.53 166.875 133.407 151.351 94.3927L154.457 81.9053L156.785 80.3469V76.4448H168.428C168.428 76.4448 169.204 94.3927 168.428 94.3927H160.665C160.665 94.3927 190.16 134.189 186.279 143.553C182.397 152.918 161.443 177.107 161.443 177.107H79.9438C79.9438 177.107 62.8686 158.378 62.8686 159.941C62.8686 161.499 29.4936 172.426 29.4936 172.426L17.8509 170.864L16.2999 166.963L13.1938 160.72C13.1938 160.72 28.7181 133.407 41.1362 125.605Z" fill="#FCFCFC"/>
<path fill-rule="evenodd" clip-rule="evenodd" d="M50.0635 126.384H1.16427C1.01095 126.384 0.859191 126.354 0.717667 126.295C0.576142 126.236 0.447633 126.149 0.339495 126.041C0.231357 125.932 0.145713 125.803 0.0874594 125.661C0.0292062 125.52 -0.000512382 125.368 6.68388e-06 125.215C6.68388e-06 124.569 0.520967 124.045 1.16427 124.045H50.0635C50.3741 124.045 50.672 124.168 50.8916 124.388C51.1113 124.607 51.2347 124.905 51.2347 125.216C51.2347 125.526 51.1113 125.824 50.8916 126.043C50.672 126.263 50.3741 126.386 50.0635 126.386V126.384ZM143.864 90.607L154.496 83.8918C154.496 83.8918 159.114 85.0281 156.785 88.9302L146.579 95.0871C146.053 95.4098 145.43 95.5385 144.818 95.451C144.207 95.3635 143.645 95.0652 143.23 94.6077L143.171 94.5367C142.145 93.3254 142.524 91.4533 143.862 90.607" fill="#565A5B"/>
<path fill-rule="evenodd" clip-rule="evenodd" d="M154.457 58.8876C154.457 62.983 152.892 66.3011 150.964 66.3011C149.034 66.3011 147.471 62.983 147.471 58.8876C147.471 54.7923 149.034 51.4741 150.964 51.4741C152.892 51.4741 154.457 54.7923 154.457 58.8876Z" fill="#BDECFF"/>
<path fill-rule="evenodd" clip-rule="evenodd" d="M18.6284 167.743H10.6147C9.03798 167.743 7.76124 166.46 7.76124 164.876V163.586C7.75966 162.828 8.05935 162.1 8.59442 161.562C9.12948 161.025 9.85615 160.722 10.6147 160.72H18.6264V167.743H18.6284ZM60.0487 179.169C60.0529 180.861 59.3846 182.486 58.1909 183.686C56.9972 184.886 55.3756 185.563 53.6827 185.568C51.9894 185.564 50.3674 184.887 49.1732 183.687C47.979 182.487 47.3105 180.861 47.3147 179.169C47.3124 178.33 47.4753 177.5 47.794 176.724C48.1128 175.949 48.5812 175.244 49.1725 174.649C49.7638 174.055 50.4665 173.583 51.2403 173.26C52.0142 172.937 52.8441 172.77 53.6827 172.767C55.3759 172.772 56.9978 173.45 58.1916 174.65C59.3854 175.851 60.0534 177.476 60.0487 179.169Z" fill="#565A5B"/>
<path fill-rule="evenodd" clip-rule="evenodd" d="M218.59 156.549C220.282 156.727 221.44 154.819 220.455 153.427C214.196 144.595 203.739 138.978 192.012 139.521C175.009 140.31 161.231 154.312 160.616 171.412C160.505 174.388 160.792 177.365 161.468 180.266C161.588 180.763 161.821 181.226 162.15 181.619C162.479 182.011 162.894 182.322 163.363 182.527C163.832 182.732 164.343 182.826 164.854 182.801C165.365 182.775 165.864 182.632 166.311 182.382C183.645 172.532 185.036 153.068 218.59 156.549Z" fill="#BDECFF"/>
<path fill-rule="evenodd" clip-rule="evenodd" d="M202.158 179.169C202.163 180.861 201.494 182.486 200.301 183.686C199.107 184.886 197.485 185.563 195.792 185.568C194.954 185.566 194.124 185.399 193.351 185.076C192.577 184.753 191.875 184.281 191.284 183.687C190.692 183.092 190.224 182.387 189.906 181.612C189.587 180.837 189.424 180.007 189.426 179.169C189.424 178.33 189.586 177.5 189.905 176.725C190.224 175.949 190.692 175.244 191.283 174.65C191.874 174.055 192.577 173.583 193.35 173.26C194.124 172.937 194.954 172.77 195.792 172.767C197.486 172.772 199.108 173.45 200.301 174.65C201.495 175.851 202.163 177.476 202.158 179.169Z" fill="#565A5B"/>
<path fill-rule="evenodd" clip-rule="evenodd" d="M154.303 59.9627C155.901 59.4143 157.569 60.308 158.5 61.6356C159.495 63.0579 159.817 64.8314 160.152 66.5003C160.727 69.3725 161.43 72.2174 162.26 75.0265C162.413 75.5413 162.556 76.871 163.108 77.1274C163.337 77.234 163.562 77.2123 163.751 77.0446L163.818 76.9834C163.886 76.9176 163.935 76.8346 163.96 76.7432C163.984 76.6518 163.983 76.5555 163.957 76.4646L163.935 76.3955C163.73 75.7445 162.705 76.0207 162.911 76.6796L162.93 76.7487L163.069 76.2298L163.001 76.289L163.645 76.2042C163.791 76.2732 163.59 75.7465 163.574 75.6992C163.491 75.4348 163.412 75.1665 163.331 74.9022C163.173 74.3695 163.015 73.8369 162.867 73.3003C162.568 72.2295 162.287 71.1536 162.025 70.073C161.539 68.0667 161.229 66.0091 160.683 64.0167C159.897 61.1404 157.433 57.7631 154.021 58.9349C153.378 59.1559 153.654 60.1876 154.303 59.9647" fill="#232828"/>
<path fill-rule="evenodd" clip-rule="evenodd" d="M68.2004 91.4593L102.454 98.2948C102.454 98.2948 104.372 95.4738 105.571 91.6369L115.505 63.7879C115.505 63.7879 119.487 37.3671 99.0989 32.2893C98.4053 32.1169 97.6733 32.1911 97.0284 32.4992C96.3836 32.8073 95.8661 33.3301 95.5647 33.978L68.2004 91.4593Z" fill="#FCFCFC"/>
<path fill-rule="evenodd" clip-rule="evenodd" d="M71.8077 91.986C71.8077 91.986 65.4299 107.466 71.9755 115.248L119.805 116.535L133.567 161.501L147.329 159.771L133.567 111.346C133.567 111.346 131.846 102.7 119.805 99.2397C103.464 94.9174 71.8077 91.986 71.8077 91.986Z" fill="#565A5B"/>
<path fill-rule="evenodd" clip-rule="evenodd" d="M130.866 16.7343L127.282 32.9857C127.128 33.319 126.978 33.6307 126.848 33.9227C126.299 35.0466 125.424 35.9797 124.338 36.6009C123.252 37.222 122.004 37.5027 120.756 37.4065C119.95 37.3526 119.164 37.1323 118.448 36.7595L111.492 33.2224L95.7286 25.2585C95.1814 24.9609 94.7309 24.513 94.4302 23.9677C94.1295 23.4223 93.9912 22.8024 94.0315 22.181L94.4124 17.0401C94.9787 9.39184 101.392 1.86983 108.632 0.429735C111.304 -0.101505 114.06 -0.0484528 116.71 0.585251C119.359 1.21896 121.84 2.41831 123.983 4.10098C125.919 5.63766 127.526 7.54802 128.709 9.71837C129.891 11.8887 130.625 14.2747 130.866 16.7343Z" fill="#FCFCFC"/>
<path fill-rule="evenodd" clip-rule="evenodd" d="M102.716 21.5676C101.584 21.4779 100.533 20.9432 99.7933 20.0807C99.054 19.2181 98.6866 18.0979 98.7716 16.9652C98.8534 15.8327 99.3815 14.7791 100.24 14.0356C101.098 13.2922 102.217 12.9197 103.35 13C104.482 13.0897 105.533 13.6243 106.273 14.4869C107.012 15.3494 107.379 16.4697 107.294 17.6024C107.212 18.7346 106.684 19.788 105.825 20.5313C104.967 21.2747 103.849 21.6473 102.716 21.5676ZM130.866 16.7344L118.258 14.1836L115.989 15.8979L115.415 23.6646L117.305 27.0379L127.282 32.9857L128.206 33.5499C128.347 33.6292 128.504 33.6776 128.666 33.6919C128.861 33.71 129.057 33.6724 129.232 33.5834C129.394 33.4957 129.531 33.3692 129.632 33.2153C129.733 33.0615 129.794 32.8849 129.81 32.7016L130.931 17.5807C130.911 17.2986 130.909 17.0184 130.866 16.7344Z" fill="#BDECFF"/>
<path fill-rule="evenodd" clip-rule="evenodd" d="M118.26 14.1757L117.307 27.0261L112.855 24.3649C112.609 24.2219 112.384 24.046 112.186 23.8421C111.875 23.5126 111.636 23.1224 111.483 22.696C111.33 22.2696 111.267 21.8162 111.298 21.3644L111.657 16.545C111.724 15.6237 112.194 14.7971 112.898 14.2468L112.92 14.227C113.65 13.6549 114.586 13.4478 115.493 13.6234L118.26 14.1757Z" fill="#565A5B"/>
<path fill-rule="evenodd" clip-rule="evenodd" d="M118.26 14.1757L117.307 27.0261L112.855 24.3649C112.609 24.2219 112.384 24.046 112.186 23.8421L112.899 14.2468L112.92 14.227C113.65 13.6549 114.586 13.4478 115.494 13.6234L118.26 14.1757Z" fill="#00ADEF"/>
<path fill-rule="evenodd" clip-rule="evenodd" d="M86.892 172.4L86.8722 172.434C72.3011 172.382 57.7301 172.424 43.1609 172.424H17.8332C17.3103 172.423 16.7952 172.296 16.331 172.056C15.8668 171.815 15.4669 171.467 15.1647 171.04C14.8624 170.613 14.6667 170.121 14.5936 169.603C14.5206 169.085 14.5725 168.558 14.7449 168.064L14.7706 167.993C16.327 164.189 18.2128 160.528 20.4064 157.052C31.6505 139.176 54.2451 123.457 76.088 129.56C87.7287 132.815 96.0581 142.361 94.2939 154.938C93.4079 161.256 90.3946 167.078 86.8939 172.4" fill="#BDECFF"/>
<path fill-rule="evenodd" clip-rule="evenodd" d="M37.2547 151.357H66.7501V149.016H37.2547V151.357ZM34.1506 157.599H63.646V155.257H34.1506V157.599ZM37.2547 163.061H66.7501V160.72H37.2547V163.061Z" fill="#00ADEF"/>
<path fill-rule="evenodd" clip-rule="evenodd" d="M59.4646 134.305C67.2001 133.883 77.1141 133.737 81.8126 141.231C82.6099 142.505 84.6286 141.33 83.8254 140.047C78.6297 131.758 68.1473 131.488 59.4646 131.959C57.9708 132.042 57.9629 134.386 59.4646 134.305ZM83.4446 145.772C83.486 146.003 83.5235 146.234 83.559 146.467L83.5827 146.626C83.565 146.494 83.565 146.496 83.5827 146.636L83.6222 146.958C83.7708 148.321 83.7946 149.694 83.6932 151.061C83.6478 151.673 84.2615 152.261 84.8575 152.233C85.5284 152.203 85.9764 151.718 86.0257 151.061C86.1613 149.084 86.0499 147.098 85.6942 145.149C85.5876 144.545 84.82 144.149 84.2596 144.33C83.6143 144.541 83.3301 145.125 83.4446 145.772Z" fill="white"/>
<path fill-rule="evenodd" clip-rule="evenodd" d="M107.357 66.1294C110.85 64.2083 114.242 62.1099 117.52 59.8423C118.134 59.4162 117.554 58.4022 116.932 58.8303C113.654 61.0978 110.262 63.1963 106.769 65.1174C106.11 65.4784 106.698 66.4924 107.357 66.1294Z" fill="#249370"/>
<path fill-rule="evenodd" clip-rule="evenodd" d="M121.108 112.67C120.259 113.7 119.588 114.84 119.097 116.083C118.984 116.371 119.219 116.742 119.503 116.807C119.839 116.884 120.101 116.702 120.222 116.397L120.305 116.189C120.261 116.294 120.348 116.091 120.356 116.073C120.659 115.394 121.025 114.745 121.449 114.134C121.65 113.848 121.717 113.757 121.933 113.499C122.128 113.262 122.179 112.897 121.933 112.67C121.717 112.473 121.317 112.418 121.108 112.67Z" fill="#838B8C"/>
<path fill-rule="evenodd" clip-rule="evenodd" d="M119.837 116.846C120.7 116.712 121.523 116.388 122.246 115.897C122.499 115.726 122.635 115.373 122.455 115.094C122.294 114.844 121.929 114.702 121.658 114.885C121.406 115.056 121.141 115.206 120.865 115.335C120.827 115.351 120.681 115.442 120.824 115.355C120.784 115.379 120.735 115.392 120.693 115.406C120.317 115.552 119.926 115.656 119.527 115.716C119.391 115.736 119.243 115.874 119.178 115.986C119.099 116.123 119.078 116.285 119.119 116.438C119.166 116.58 119.251 116.714 119.387 116.787C119.533 116.866 119.673 116.872 119.837 116.846Z" fill="#838B8C"/>
<path fill-rule="evenodd" clip-rule="evenodd" d="M119.181 116.442L121.816 126.029C122.015 126.757 123.142 126.448 122.941 125.72L120.304 116.132C120.105 115.406 118.98 115.712 119.18 116.442H119.181ZM77.6349 101.209C79.3865 101.011 81.0774 100.449 82.5991 99.5597C84.1209 98.6703 85.4399 97.4728 86.4715 96.0439C86.9135 95.4324 85.9032 94.8484 85.4651 95.4521C84.5443 96.7122 83.374 97.7693 82.0269 98.5577C80.6798 99.3461 79.1848 99.8489 77.6349 100.035C77.3192 100.072 77.0547 100.279 77.0528 100.623C77.0488 100.911 77.3231 101.242 77.6349 101.209Z" fill="#838B8C"/>
<path fill-rule="evenodd" clip-rule="evenodd" d="M101.066 54.1135C101.066 54.1135 102.971 81.1044 109.116 81.7001L114.609 66.301L105.171 53.425L101.066 54.1135Z" fill="#00ADEF"/>
<path fill-rule="evenodd" clip-rule="evenodd" d="M105.353 58.5996L112.543 70.9824L142.252 88.1886C143.973 92.5128 148.273 90.7827 149.993 93.3768C150.792 93.7911 155.154 91.6487 155.154 90.7827L153.433 87.3245L150.404 86.1784L145.693 85.5944L119.529 64.7407L113.177 51.6813L105.353 58.5996Z" fill="#C19571"/>
<path fill-rule="evenodd" clip-rule="evenodd" d="M108.358 37.2488L120.307 59.2782L107.111 66.3011L98.5723 51.4741L108.358 37.2488Z" fill="#BDECFF"/>
<path fill-rule="evenodd" clip-rule="evenodd" d="M99.1899 51.4918L106.148 66.2656C106.468 66.9462 107.474 66.3524 107.154 65.6738L100.196 50.9C99.8766 50.2194 98.8702 50.8132 99.1899 51.4918Z" fill="#232828"/>
<path fill-rule="evenodd" clip-rule="evenodd" d="M17.2332 92.5818H54.7265V80.7455H17.2332V92.5818Z" fill="#00ADEF"/>
<path fill-rule="evenodd" clip-rule="evenodd" d="M9.33984 90.6091H52.7532V78.7727H9.33984V90.6091Z" fill="white"/>
<path fill-rule="evenodd" clip-rule="evenodd" d="M7.63477 124.045H55.9045V88.9302H7.63477V124.045Z" fill="#FCFCFC"/>
<path d="M30.3887 104.418C30.3887 103.329 29.2106 102.445 27.7576 102.445C26.3046 102.445 25.1265 103.329 25.1265 104.418V110.336H30.3887V104.418Z" fill="#00ADEF"/>
<path fill-rule="evenodd" clip-rule="evenodd" d="M33.6776 102.445C35.4939 102.445 36.9665 103.329 36.9665 104.418V110.336H30.3887V104.418C30.3887 103.329 31.8613 102.445 33.6776 102.445ZM33.6776 103.432C34.7673 103.432 35.6509 104.094 35.6509 104.911V109.35H31.7042V104.911C31.7042 104.094 32.5878 103.432 33.6776 103.432Z" fill="#00ADEF"/>
</svg>
