<svg width="175" height="168" viewBox="0 0 175 168" fill="none" xmlns="http://www.w3.org/2000/svg">
<path d="M174 84C174 129.802 135.312 167 87.5 167C39.6885 167 1 129.802 1 84C1 38.1984 39.6885 1 87.5 1C135.312 1 174 38.1984 174 84Z" fill="white" stroke="#00ADEF" stroke-width="2"/>
<path d="M107.342 75.3019L111.679 75.1341C111.42 69.9171 108.823 23.9212 97.4075 15.5306C96.6825 14.9593 95.8276 14.5312 94.9 14.275C93.9724 14.0187 92.9935 13.9403 92.0288 14.045C85.2327 14.8798 77.8119 24.3902 69.3411 43.12C63.3097 56.4553 58.9622 69.7519 58.9189 69.8848L63.0903 70.9423C63.133 70.8111 67.4293 57.6753 73.3827 44.5158C83.895 21.2812 90.3426 18.12 92.6267 17.8398C92.9932 17.8048 93.364 17.8437 93.711 17.9536C94.058 18.0636 94.3722 18.2417 94.6298 18.4745C103.053 24.6651 106.662 61.5943 107.342 75.3019Z" fill="black"/>
<path d="M35.5396 46.8338L32 127.726H148.785L134.348 46.8339L35.5396 46.8338Z" fill="#44C2F3"/>
<path d="M72.3088 84.7692C72.6191 84.8231 72.8742 84.9675 73.0741 85.2025C73.2739 85.4375 73.3739 85.7068 73.3739 86.0103C73.3739 86.2844 73.3002 86.5268 73.153 86.7373C73.0109 86.9429 72.8032 87.1045 72.5297 87.222C72.2562 87.3395 71.9327 87.3982 71.5593 87.3982H69.1846V82.2724H71.4567C71.8302 82.2724 72.151 82.3287 72.4192 82.4413C72.6927 82.5539 72.8979 82.7106 73.0346 82.9113C73.1766 83.112 73.2476 83.3397 73.2476 83.5942C73.2476 83.8929 73.1608 84.1426 72.9873 84.3433C72.819 84.544 72.5928 84.686 72.3088 84.7692ZM70.2891 84.3874H71.2989C71.5619 84.3874 71.7644 84.3335 71.9064 84.2258C72.0484 84.1132 72.1194 83.9541 72.1194 83.7485C72.1194 83.5428 72.0484 83.3837 71.9064 83.2711C71.7644 83.1585 71.5619 83.1022 71.2989 83.1022H70.2891V84.3874ZM71.4015 86.5611C71.6697 86.5611 71.8775 86.5023 72.0248 86.3848C72.1773 86.2673 72.2536 86.1009 72.2536 85.8854C72.2536 85.6651 72.1747 85.4938 72.0169 85.3714C71.8591 85.2441 71.6461 85.1805 71.3778 85.1805H70.2891V86.5611H71.4015Z" fill="#FCFCFC"/>
<path d="M78.3803 83.3299V87.3982H77.2679V86.8842C77.1259 87.0604 76.9392 87.2 76.7078 87.3028C76.4816 87.4007 76.2344 87.4496 75.9662 87.4496C75.6243 87.4496 75.3219 87.3835 75.0589 87.2514C74.7959 87.1143 74.5881 86.916 74.4356 86.6565C74.2883 86.3922 74.2147 86.0788 74.2147 85.7165V83.3299H75.3192V85.5697C75.3192 85.8928 75.406 86.1425 75.5796 86.3187C75.7531 86.4901 75.9898 86.5757 76.2896 86.5757C76.5947 86.5757 76.834 86.4901 77.0076 86.3187C77.1811 86.1425 77.2679 85.8928 77.2679 85.5697V83.3299H78.3803Z" fill="#FCFCFC"/>
<path d="M83.6515 83.3299L80.9454 89.3223H79.7699L80.7166 87.2954L78.9652 83.3299H80.2038L81.332 86.1718L82.476 83.3299H83.6515Z" fill="#FCFCFC"/>
<path d="M91.5907 81.3838V87.3982H90.0167V83.7913L88.5716 87.3982H87.3014L85.8472 83.7827V87.3982H84.2732V81.3838H86.1325L87.9457 85.5476L89.7406 81.3838H91.5907Z" fill="#FCFCFC"/>
<path d="M97.564 84.9308C97.564 85.0679 97.5548 85.2107 97.5364 85.3592H93.9743C93.9988 85.6562 94.1001 85.8846 94.278 86.0446C94.4621 86.1988 94.6861 86.2759 94.95 86.2759C95.3427 86.2759 95.6157 86.1217 95.7691 85.8132H97.4443C97.3584 86.1274 97.202 86.4101 96.9749 86.6614C96.754 86.9127 96.4748 87.1098 96.1373 87.2526C95.7998 87.3954 95.4225 87.4668 95.0052 87.4668C94.502 87.4668 94.0541 87.3668 93.6614 87.1669C93.2686 86.967 92.9618 86.6814 92.7409 86.3102C92.52 85.9389 92.4096 85.5048 92.4096 85.0079C92.4096 84.511 92.5169 84.0769 92.7317 83.7056C92.9526 83.3344 93.2594 83.0488 93.6522 82.8489C94.0449 82.649 94.4959 82.549 95.0052 82.549C95.5022 82.549 95.944 82.6461 96.3306 82.8403C96.7172 83.0345 97.0179 83.3115 97.2326 83.6713C97.4535 84.0312 97.564 84.451 97.564 84.9308ZM95.9532 84.5452C95.9532 84.2939 95.8612 84.094 95.6771 83.9455C95.493 83.797 95.2629 83.7228 94.9868 83.7228C94.7229 83.7228 94.499 83.7942 94.3149 83.9369C94.1369 84.0797 94.0265 84.2825 93.9835 84.5452H95.9532Z" fill="#FCFCFC"/>
<path d="M98.0814 84.9993C98.0814 84.5081 98.1796 84.0769 98.3759 83.7056C98.5784 83.3344 98.8515 83.0488 99.1951 82.8489C99.5387 82.649 99.9222 82.549 100.346 82.549C100.683 82.549 100.99 82.6147 101.266 82.7461C101.548 82.8774 101.769 83.0545 101.929 83.2772V81.0582H103.503V87.3982H101.929V86.7128C101.782 86.9413 101.57 87.1241 101.294 87.2611C101.024 87.3982 100.708 87.4668 100.346 87.4668C99.9222 87.4668 99.5387 87.3668 99.1951 87.1669C98.8515 86.9613 98.5784 86.6728 98.3759 86.3016C98.1796 85.9246 98.0814 85.4905 98.0814 84.9993ZM101.929 85.0079C101.929 84.6423 101.818 84.3539 101.597 84.1426C101.383 83.9312 101.119 83.8256 100.806 83.8256C100.493 83.8256 100.226 83.9312 100.005 84.1426C99.7903 84.3482 99.6829 84.6338 99.6829 84.9993C99.6829 85.3649 99.7903 85.6562 100.005 85.8732C100.226 86.0845 100.493 86.1902 100.806 86.1902C101.119 86.1902 101.383 86.0845 101.597 85.8732C101.818 85.6619 101.929 85.3734 101.929 85.0079Z" fill="#FCFCFC"/>
<path d="M105.433 82.1206C105.157 82.1206 104.93 82.0464 104.752 81.8979C104.58 81.7437 104.494 81.5552 104.494 81.3324C104.494 81.1039 104.58 80.9155 104.752 80.767C104.93 80.6127 105.157 80.5356 105.433 80.5356C105.703 80.5356 105.924 80.6127 106.096 80.767C106.274 80.9155 106.363 81.1039 106.363 81.3324C106.363 81.5552 106.274 81.7437 106.096 81.8979C105.924 82.0464 105.703 82.1206 105.433 82.1206ZM106.215 82.6175V87.3982H104.641V82.6175H106.215Z" fill="#FCFCFC"/>
<path d="M110.393 87.3982L109.409 86.0703L108.58 87.3982H106.877L108.571 84.9565L106.831 82.6175H108.599L109.583 83.9369L110.412 82.6175H112.115L110.393 85.025L112.161 87.3982H110.393Z" fill="#FCFCFC"/>
<path d="M112.972 87.4368C112.822 87.4368 112.697 87.3946 112.599 87.3101C112.504 87.222 112.457 87.1137 112.457 86.9852C112.457 86.8566 112.504 86.7502 112.599 86.6657C112.697 86.5776 112.822 86.5335 112.972 86.5335C113.118 86.5335 113.238 86.5776 113.333 86.6657C113.427 86.7502 113.475 86.8566 113.475 86.9852C113.475 87.1137 113.427 87.222 113.333 87.3101C113.238 87.3946 113.118 87.4368 112.972 87.4368Z" fill="#FCFCFC"/>
<path d="M113.929 85.8726C113.929 85.5568 113.998 85.2814 114.136 85.0464C114.274 84.8078 114.465 84.6242 114.71 84.4957C114.954 84.3635 115.234 84.2974 115.55 84.2974C115.956 84.2974 116.292 84.3929 116.556 84.5838C116.824 84.7711 117.004 85.0354 117.094 85.3769H116.201C116.154 85.2447 116.073 85.1419 115.958 85.0685C115.848 84.9914 115.71 84.9528 115.544 84.9528C115.307 84.9528 115.12 85.0336 114.982 85.1951C114.844 85.353 114.775 85.5789 114.775 85.8726C114.775 86.1627 114.844 86.3885 114.982 86.55C115.12 86.7079 115.307 86.7869 115.544 86.7869C115.879 86.7869 116.098 86.6473 116.201 86.3683H117.094C117.004 86.6988 116.824 86.9613 116.556 87.1559C116.288 87.3505 115.952 87.4478 115.55 87.4478C115.234 87.4478 114.954 87.3835 114.71 87.255C114.465 87.1228 114.274 86.9393 114.136 86.7043C113.998 86.4656 113.929 86.1884 113.929 85.8726Z" fill="#FCFCFC"/>
<path d="M119.157 87.4478C118.841 87.4478 118.557 87.3835 118.305 87.255C118.052 87.1228 117.853 86.9374 117.707 86.6988C117.565 86.4601 117.494 86.1847 117.494 85.8726C117.494 85.5605 117.567 85.2851 117.713 85.0464C117.863 84.8078 118.066 84.6242 118.323 84.4957C118.579 84.3635 118.865 84.2974 119.181 84.2974C119.496 84.2974 119.782 84.3635 120.039 84.4957C120.295 84.6242 120.496 84.8078 120.642 85.0464C120.792 85.2851 120.867 85.5605 120.867 85.8726C120.867 86.1847 120.79 86.4601 120.636 86.6988C120.486 86.9374 120.281 87.1228 120.021 87.255C119.764 87.3835 119.476 87.4478 119.157 87.4478ZM119.157 86.7759C119.307 86.7759 119.447 86.7428 119.577 86.6767C119.711 86.607 119.818 86.5041 119.897 86.3683C119.975 86.2324 120.015 86.0672 120.015 85.8726C120.015 85.5825 119.932 85.3604 119.766 85.2062C119.605 85.0483 119.405 84.9693 119.169 84.9693C118.932 84.9693 118.733 85.0483 118.571 85.2062C118.413 85.3604 118.334 85.5825 118.334 85.8726C118.334 86.1627 118.411 86.3866 118.565 86.5445C118.723 86.6988 118.92 86.7759 119.157 86.7759Z" fill="#FCFCFC"/>
<path d="M125.546 84.3029C125.948 84.3029 126.271 84.4186 126.516 84.6499C126.764 84.8775 126.889 85.197 126.889 85.6082V87.3982H126.06V85.7129C126.06 85.4742 125.995 85.2924 125.865 85.1676C125.735 85.0391 125.557 84.9748 125.332 84.9748C125.108 84.9748 124.928 85.0391 124.794 85.1676C124.664 85.2924 124.599 85.4742 124.599 85.7129V87.3982H123.77V85.7129C123.77 85.4742 123.705 85.2924 123.575 85.1676C123.445 85.0391 123.267 84.9748 123.043 84.9748C122.814 84.9748 122.632 85.0391 122.498 85.1676C122.368 85.2924 122.303 85.4742 122.303 85.7129V87.3982H121.475V84.347H122.303V84.716C122.409 84.5875 122.546 84.4865 122.711 84.4131C122.881 84.3396 123.066 84.3029 123.267 84.3029C123.524 84.3029 123.753 84.3543 123.954 84.4571C124.155 84.5563 124.311 84.6995 124.421 84.8867C124.528 84.7105 124.682 84.5691 124.883 84.4626C125.088 84.3561 125.309 84.3029 125.546 84.3029Z" fill="#FCFCFC"/>
<path d="M54.756 80.1839C54.756 77.7576 52.6029 75.7906 49.9473 75.7906C47.2918 75.7906 45.1387 77.7576 45.1387 80.1839V93.3639H54.756V80.1839Z" fill="#FCFCFC"/>
<path fill-rule="evenodd" clip-rule="evenodd" d="M60.7669 75.7906C64.0863 75.7906 66.7777 77.7576 66.7777 80.1839V93.3639H54.756V80.1839C54.756 77.7576 57.4474 75.7906 60.7669 75.7906ZM60.7669 77.9873C62.7585 77.9873 64.3734 79.4625 64.3734 81.2822V91.1672H57.1604V81.2822C57.1604 79.4625 58.7752 77.9873 60.7669 77.9873Z" fill="#FCFCFC"/>
<path d="M134.749 48.6842L126.614 49.0183L137.362 117.045L34.9189 121.705V128H149.294L134.749 48.6842Z" fill="#00ADEF"/>
<g clip-path="url(#clip0)">
<path d="M101.727 98.9876L98.2848 96.3916L85.8187 114.806L77.9173 107.546C77.2147 108.255 77.0375 108.692 77.0375 108.692C76.3883 109.509 76.4713 109.973 77.2387 110.614L85.231 117.225C86.0538 117.916 86.517 117.845 87.153 117.071L101.727 99.7447C101.727 99.7447 102.357 99.3417 101.727 98.9876Z" fill="white"/>
</g>
<defs>
<clipPath id="clip0">
<rect width="29.0377" height="29.0377" fill="white" transform="translate(76.248 91.4339)"/>
</clipPath>
</defs>
</svg>
