<svg width="298" height="51" viewBox="0 0 298 51" fill="none" xmlns="http://www.w3.org/2000/svg">
<path d="M80.4399 30.9492C81.6755 31.1863 82.6913 31.8224 83.4871 32.8572C84.2829 33.8921 84.6808 35.0779 84.6808 36.4146C84.6808 37.622 84.3876 38.6892 83.8012 39.6163C83.2358 40.5218 82.4085 41.2333 81.3195 41.7508C80.2305 42.2682 78.9425 42.5269 77.4556 42.5269H68V19.9536H77.0472C78.5341 19.9536 79.8116 20.2015 80.8797 20.6974C81.9687 21.1933 82.7855 21.8832 83.33 22.7672C83.8955 23.6511 84.1782 24.6537 84.1782 25.7748C84.1782 27.0899 83.8326 28.1895 83.1415 29.0735C82.4714 29.9574 81.5708 30.5827 80.4399 30.9492ZM72.398 29.2675H76.4189C77.4661 29.2675 78.2724 29.0303 78.8378 28.556C79.4033 28.0601 79.686 27.3594 79.686 26.4539C79.686 25.5484 79.4033 24.8477 78.8378 24.3518C78.2724 23.8559 77.4661 23.608 76.4189 23.608H72.398V29.2675ZM76.8273 38.8401C77.8954 38.8401 78.7226 38.5814 79.309 38.064C79.9164 37.5465 80.22 36.8135 80.22 35.8649C80.22 34.8947 79.9059 34.1401 79.2776 33.6011C78.6493 33.0405 77.8011 32.7602 76.7331 32.7602H72.398V38.8401H76.8273Z" fill="#1F1F1F"/>
<path d="M104.615 24.6105V42.5269H100.186V40.2631C99.6206 41.0393 98.8771 41.6537 97.9556 42.1065C97.0551 42.5377 96.0708 42.7533 95.0027 42.7533C93.6415 42.7533 92.4373 42.4622 91.3901 41.8801C90.343 41.2764 89.5158 40.4033 88.9084 39.2606C88.322 38.0963 88.0288 36.7165 88.0288 35.121V24.6105H92.4268V34.4742C92.4268 35.8972 92.7723 36.9968 93.4634 37.7729C94.1546 38.5275 95.097 38.9048 96.2907 38.9048C97.5054 38.9048 98.4583 38.5275 99.1494 37.7729C99.8405 36.9968 100.186 35.8972 100.186 34.4742V24.6105H104.615Z" fill="#1F1F1F"/>
<path d="M125.604 24.6105L114.829 51H110.148L113.918 42.0742L106.944 24.6105H111.876L116.368 37.1261L120.923 24.6105H125.604Z" fill="#1F1F1F"/>
<path d="M157.451 18.7353V45.2218H151.184V29.3374L145.43 45.2218H140.372L134.582 29.2997V45.2218H128.314V18.7353H135.718L142.938 37.0721L150.084 18.7353H157.451Z" fill="#1F1F1F"/>
<path d="M181.235 34.3555C181.235 34.9592 181.199 35.588 181.125 36.242H166.942C167.04 37.55 167.443 38.5561 168.151 39.2604C168.884 39.9396 169.776 40.2791 170.827 40.2791C172.391 40.2791 173.478 39.6 174.089 38.2417H180.759C180.417 39.6251 179.794 40.8702 178.89 41.977C178.01 43.0837 176.898 43.9515 175.555 44.5804C174.211 45.2092 172.708 45.5236 171.047 45.5236C169.043 45.5236 167.26 45.0834 165.696 44.203C164.132 43.3227 162.911 42.065 162.031 40.43C161.151 38.7951 160.712 36.8834 160.712 34.6951C160.712 32.5067 161.139 30.5951 161.994 28.9601C162.874 27.3251 164.096 26.0675 165.659 25.1871C167.223 24.3067 169.019 23.8666 171.047 23.8666C173.026 23.8666 174.785 24.2942 176.324 25.1494C177.864 26.0046 179.061 27.2245 179.916 28.8092C180.796 30.3939 181.235 32.2426 181.235 34.3555ZM174.822 32.6577C174.822 31.5509 174.455 30.6705 173.722 30.0166C172.989 29.3626 172.073 29.0356 170.973 29.0356C169.923 29.0356 169.031 29.35 168.298 29.9788C167.589 30.6077 167.15 31.5006 166.979 32.6577H174.822Z" fill="#1F1F1F"/>
<path d="M183.295 34.6574C183.295 32.4942 183.686 30.5951 184.468 28.9601C185.275 27.3251 186.362 26.0675 187.73 25.1871C189.098 24.3067 190.625 23.8666 192.311 23.8666C193.655 23.8666 194.877 24.1558 195.976 24.7343C197.1 25.3129 197.98 26.0926 198.615 27.0736V17.3015H204.882V45.2218H198.615V42.2034C198.029 43.2095 197.186 44.0144 196.086 44.6181C195.011 45.2218 193.753 45.5236 192.311 45.5236C190.625 45.5236 189.098 45.0834 187.73 44.203C186.362 43.2975 185.275 42.0273 184.468 40.3923C183.686 38.7322 183.295 36.8205 183.295 34.6574ZM198.615 34.6951C198.615 33.0853 198.175 31.815 197.296 30.8843C196.44 29.9537 195.39 29.4883 194.144 29.4883C192.898 29.4883 191.835 29.9537 190.955 30.8843C190.1 31.7899 189.672 33.0475 189.672 34.6574C189.672 36.2672 190.1 37.55 190.955 38.5058C191.835 39.4365 192.898 39.9018 194.144 39.9018C195.39 39.9018 196.44 39.4365 197.296 38.5058C198.175 37.5751 198.615 36.3049 198.615 34.6951Z" fill="#1F1F1F"/>
<path d="M212.568 21.9801C211.468 21.9801 210.564 21.6531 209.856 20.9991C209.172 20.3199 208.83 19.4899 208.83 18.5089C208.83 17.5028 209.172 16.6727 209.856 16.0187C210.564 15.3396 211.468 15 212.568 15C213.643 15 214.523 15.3396 215.207 16.0187C215.915 16.6727 216.269 17.5028 216.269 18.5089C216.269 19.4899 215.915 20.3199 215.207 20.9991C214.523 21.6531 213.643 21.9801 212.568 21.9801ZM215.683 24.1684V45.2218H209.416V24.1684H215.683Z" fill="#1F1F1F"/>
<path d="M242.585 45.3915C241.988 45.3915 241.493 45.2056 241.101 44.8337C240.724 44.4456 240.535 43.9686 240.535 43.4026C240.535 42.8367 240.724 42.3678 241.101 41.9958C241.493 41.6078 241.988 41.4137 242.585 41.4137C243.166 41.4137 243.645 41.6078 244.022 41.9958C244.399 42.3678 244.588 42.8367 244.588 43.4026C244.588 43.9686 244.399 44.4456 244.022 44.8337C243.645 45.2056 243.166 45.3915 242.585 45.3915Z" fill="#1F1F1F"/>
<path d="M246.396 38.5031C246.396 37.1125 246.671 35.8997 247.221 34.8649C247.771 33.8138 248.532 33.0053 249.506 32.4394C250.48 31.8572 251.595 31.5662 252.852 31.5662C254.47 31.5662 255.805 31.9866 256.857 32.8274C257.925 33.6521 258.64 34.8164 259.001 36.3202H255.443C255.255 35.738 254.933 35.2853 254.477 34.9619C254.038 34.6223 253.488 34.4525 252.828 34.4525C251.886 34.4525 251.14 34.8083 250.59 35.5198C250.04 36.2151 249.765 37.2095 249.765 38.5031C249.765 39.7806 250.04 40.775 250.59 41.4865C251.14 42.1818 251.886 42.5295 252.828 42.5295C254.163 42.5295 255.035 41.915 255.443 40.6861H259.001C258.64 42.1414 257.925 43.2975 256.857 44.1545C255.789 45.0116 254.454 45.4401 252.852 45.4401C251.595 45.4401 250.48 45.1571 249.506 44.5911C248.532 44.009 247.771 43.2005 247.221 42.1656C246.671 41.1146 246.396 39.8937 246.396 38.5031Z" fill="#1F1F1F"/>
<path d="M267.213 45.4401C265.957 45.4401 264.826 45.1571 263.821 44.5911C262.815 44.009 262.022 43.1924 261.441 42.1414C260.876 41.0903 260.593 39.8776 260.593 38.5031C260.593 37.1287 260.883 35.9159 261.465 34.8649C262.061 33.8138 262.87 33.0053 263.891 32.4394C264.912 31.8572 266.051 31.5662 267.308 31.5662C268.564 31.5662 269.703 31.8572 270.724 32.4394C271.745 33.0053 272.546 33.8138 273.127 34.8649C273.724 35.9159 274.022 37.1287 274.022 38.5031C274.022 39.8776 273.716 41.0903 273.103 42.1414C272.507 43.1924 271.69 44.009 270.653 44.5911C269.632 45.1571 268.486 45.4401 267.213 45.4401ZM267.213 42.4809C267.81 42.4809 268.368 42.3354 268.886 42.0444C269.42 41.7371 269.844 41.2844 270.158 40.6861C270.472 40.0878 270.63 39.3601 270.63 38.5031C270.63 37.2257 270.3 36.2474 269.64 35.5683C268.996 34.8729 268.203 34.5253 267.26 34.5253C266.318 34.5253 265.525 34.8729 264.881 35.5683C264.253 36.2474 263.938 37.2257 263.938 38.5031C263.938 39.7806 264.245 40.7669 264.857 41.4622C265.486 42.1414 266.271 42.4809 267.213 42.4809Z" fill="#1F1F1F"/>
<path d="M292.651 31.5904C294.254 31.5904 295.542 32.0998 296.515 33.1185C297.505 34.121 298 35.5278 298 37.3389V45.2218H294.701V37.7997C294.701 36.7487 294.442 35.9483 293.924 35.3985C293.405 34.8325 292.699 34.5496 291.803 34.5496C290.908 34.5496 290.193 34.8325 289.659 35.3985C289.141 35.9483 288.882 36.7487 288.882 37.7997V45.2218H285.583V37.7997C285.583 36.7487 285.324 35.9483 284.806 35.3985C284.287 34.8325 283.581 34.5496 282.685 34.5496C281.774 34.5496 281.052 34.8325 280.518 35.3985C279.999 35.9483 279.74 36.7487 279.74 37.7997V45.2218H276.442V31.7845H279.74V33.4096C280.164 32.8436 280.706 32.3989 281.366 32.0755C282.041 31.7521 282.78 31.5904 283.581 31.5904C284.602 31.5904 285.513 31.8168 286.314 32.2696C287.115 32.7062 287.735 33.3368 288.175 34.1615C288.599 33.3853 289.212 32.7628 290.013 32.2938C290.829 31.8249 291.709 31.5904 292.651 31.5904Z" fill="#1F1F1F"/>
<path d="M232.539 45.2218L228.427 39.2329L224.968 45.2218H217.859L224.93 34.2099L217.667 23.6618H225.045L229.157 29.612L232.616 23.6618H239.726L232.539 34.5191L239.918 45.2218H232.539Z" fill="#F53400"/>
<path d="M42.81 7.16652C45.4759 7.16652 48.0033 8.23016 49.9162 10.1569C51.829 12.0837 52.8764 14.6207 52.8764 17.3147V42.8335H32.7436V17.3147C32.7436 14.6295 33.7996 12.0837 35.7038 10.1569C37.6167 8.23016 40.1441 7.16652 42.81 7.16652ZM42.81 0C33.3495 0 25.6201 7.79424 25.6201 17.3147V50H59.9998V17.3147C59.9998 12.5545 58.0697 8.22144 54.9537 5.09154C51.8377 1.9442 47.5446 0 42.81 0Z" fill="#00AEEF"/>
<path d="M25.6203 17.5327V50H0V17.5327C0 10.4098 5.74727 4.62947 12.8102 4.62947C16.2204 4.62947 19.423 5.98082 21.8552 8.42197C24.2787 10.8893 25.6203 14.1151 25.6203 17.5327Z" fill="#00AEEF"/>
</svg>
