<svg width="306" height="59" viewBox="0 0 306 59" fill="none" xmlns="http://www.w3.org/2000/svg">
<g filter="url(#filter0_d)">
<path d="M84.4399 30.9492C85.6755 31.1864 86.6913 31.8224 87.4871 32.8573C88.2829 33.8922 88.6808 35.078 88.6808 36.4147C88.6808 37.6221 88.3876 38.6893 87.8012 39.6164C87.2358 40.5219 86.4085 41.2334 85.3195 41.7508C84.2305 42.2682 82.9425 42.527 81.4556 42.527H72V19.9536H81.0472C82.5341 19.9536 83.8116 20.2016 84.8797 20.6974C85.9687 21.1933 86.7855 21.8832 87.33 22.7672C87.8955 23.6512 88.1782 24.6537 88.1782 25.7748C88.1782 27.09 87.8326 28.1895 87.1415 29.0735C86.4714 29.9575 85.5708 30.5827 84.4399 30.9492ZM76.398 29.2675H80.4189C81.4661 29.2675 82.2724 29.0304 82.8378 28.5561C83.4033 28.0602 83.686 27.3595 83.686 26.454C83.686 25.5484 83.4033 24.8477 82.8378 24.3519C82.2724 23.856 81.4661 23.608 80.4189 23.608H76.398V29.2675ZM80.8273 38.8402C81.8954 38.8402 82.7226 38.5815 83.309 38.064C83.9164 37.5466 84.22 36.8136 84.22 35.8649C84.22 34.8947 83.9059 34.1401 83.2776 33.6011C82.6493 33.0405 81.8011 32.7603 80.7331 32.7603H76.398V38.8402H80.8273Z" fill="white"/>
<path d="M108.615 24.6106V42.527H104.186V40.2632C103.621 41.0393 102.877 41.6538 101.956 42.1065C101.055 42.5377 100.071 42.7533 99.0027 42.7533C97.6415 42.7533 96.4373 42.4623 95.3901 41.8802C94.343 41.2765 93.5158 40.4033 92.9084 39.2606C92.322 38.0964 92.0288 36.7165 92.0288 35.1211V24.6106H96.4268V34.4743C96.4268 35.8973 96.7723 36.9968 97.4634 37.773C98.1546 38.5276 99.097 38.9049 100.291 38.9049C101.505 38.9049 102.458 38.5276 103.149 37.773C103.84 36.9968 104.186 35.8973 104.186 34.4743V24.6106H108.615Z" fill="white"/>
<path d="M129.604 24.6106L118.829 51H114.148L117.918 42.0742L110.944 24.6106H115.876L120.368 37.1262L124.923 24.6106H129.604Z" fill="white"/>
<path d="M161.451 18.7353V45.2218H155.184V29.3374L149.43 45.2218H144.372L138.582 29.2997V45.2218H132.315V18.7353H139.718L146.938 37.0721L154.085 18.7353H161.451Z" fill="white"/>
<path d="M185.236 34.3555C185.236 34.9592 185.199 35.588 185.126 36.242H170.942C171.04 37.55 171.443 38.5561 172.152 39.2604C172.885 39.9396 173.776 40.2791 174.827 40.2791C176.391 40.2791 177.478 39.6 178.089 38.2417H184.759C184.417 39.6251 183.794 40.8702 182.89 41.977C182.01 43.0837 180.899 43.9515 179.555 44.5804C178.211 45.2092 176.708 45.5236 175.047 45.5236C173.043 45.5236 171.26 45.0834 169.696 44.203C168.132 43.3227 166.911 42.065 166.031 40.43C165.152 38.7951 164.712 36.8834 164.712 34.6951C164.712 32.5067 165.139 30.5951 165.995 28.9601C166.874 27.3251 168.096 26.0675 169.659 25.1871C171.223 24.3067 173.019 23.8666 175.047 23.8666C177.026 23.8666 178.785 24.2942 180.325 25.1494C181.864 26.0046 183.061 27.2245 183.916 28.8092C184.796 30.3939 185.236 32.2426 185.236 34.3555ZM178.822 32.6577C178.822 31.5509 178.455 30.6705 177.722 30.0166C176.989 29.3626 176.073 29.0356 174.974 29.0356C173.923 29.0356 173.031 29.35 172.298 29.9788C171.59 30.6077 171.15 31.5006 170.979 32.6577H178.822Z" fill="white"/>
<path d="M187.296 34.6574C187.296 32.4942 187.687 30.5951 188.468 28.9601C189.275 27.3251 190.362 26.0675 191.73 25.1871C193.099 24.3067 194.626 23.8666 196.311 23.8666C197.655 23.8666 198.877 24.1558 199.976 24.7343C201.1 25.3129 201.98 26.0926 202.615 27.0736V17.3015H208.882V45.2218H202.615V42.2034C202.029 43.2095 201.186 44.0144 200.086 44.6181C199.011 45.2218 197.753 45.5236 196.311 45.5236C194.626 45.5236 193.099 45.0834 191.73 44.203C190.362 43.2975 189.275 42.0273 188.468 40.3923C187.687 38.7322 187.296 36.8205 187.296 34.6574ZM202.615 34.6951C202.615 33.0853 202.175 31.815 201.296 30.8843C200.441 29.9537 199.39 29.4883 198.144 29.4883C196.898 29.4883 195.835 29.9537 194.955 30.8843C194.1 31.7899 193.673 33.0475 193.673 34.6574C193.673 36.2672 194.1 37.55 194.955 38.5058C195.835 39.4365 196.898 39.9018 198.144 39.9018C199.39 39.9018 200.441 39.4365 201.296 38.5058C202.175 37.5751 202.615 36.3049 202.615 34.6951Z" fill="white"/>
<path d="M216.568 21.9801C215.469 21.9801 214.565 21.6531 213.856 20.9991C213.172 20.3199 212.83 19.4899 212.83 18.5089C212.83 17.5028 213.172 16.6727 213.856 16.0187C214.565 15.3396 215.469 15 216.568 15C217.643 15 218.523 15.3396 219.207 16.0187C219.915 16.6727 220.27 17.5028 220.27 18.5089C220.27 19.4899 219.915 20.3199 219.207 20.9991C218.523 21.6531 217.643 21.9801 216.568 21.9801ZM219.683 24.1684V45.2218H213.416V24.1684H219.683Z" fill="white"/>
<path d="M246.585 45.3915C245.988 45.3915 245.493 45.2056 245.101 44.8337C244.724 44.4456 244.535 43.9686 244.535 43.4026C244.535 42.8367 244.724 42.3678 245.101 41.9958C245.493 41.6078 245.988 41.4137 246.585 41.4137C247.166 41.4137 247.645 41.6078 248.022 41.9958C248.399 42.3678 248.588 42.8367 248.588 43.4026C248.588 43.9686 248.399 44.4456 248.022 44.8337C247.645 45.2056 247.166 45.3915 246.585 45.3915Z" fill="white"/>
<path d="M250.396 38.5031C250.396 37.1125 250.671 35.8997 251.221 34.8649C251.771 33.8138 252.533 33.0053 253.506 32.4394C254.48 31.8572 255.595 31.5662 256.852 31.5662C258.47 31.5662 259.805 31.9866 260.857 32.8274C261.925 33.6521 262.64 34.8164 263.001 36.3202H259.444C259.255 35.738 258.933 35.2853 258.478 34.9619C258.038 34.6223 257.488 34.4525 256.828 34.4525C255.886 34.4525 255.14 34.8083 254.59 35.5198C254.04 36.2151 253.766 37.2095 253.766 38.5031C253.766 39.7806 254.04 40.775 254.59 41.4865C255.14 42.1818 255.886 42.5295 256.828 42.5295C258.163 42.5295 259.035 41.915 259.444 40.6861H263.001C262.64 42.1414 261.925 43.2975 260.857 44.1545C259.789 45.0116 258.454 45.4401 256.852 45.4401C255.595 45.4401 254.48 45.1571 253.506 44.5911C252.533 44.009 251.771 43.2005 251.221 42.1656C250.671 41.1146 250.396 39.8937 250.396 38.5031Z" fill="white"/>
<path d="M271.214 45.4401C269.957 45.4401 268.826 45.1571 267.821 44.5911C266.816 44.009 266.022 43.1924 265.441 42.1414C264.876 41.0903 264.593 39.8776 264.593 38.5031C264.593 37.1287 264.884 35.9159 265.465 34.8649C266.062 33.8138 266.871 33.0053 267.892 32.4394C268.912 31.8572 270.051 31.5662 271.308 31.5662C272.564 31.5662 273.703 31.8572 274.724 32.4394C275.745 33.0053 276.546 33.8138 277.127 34.8649C277.724 35.9159 278.023 37.1287 278.023 38.5031C278.023 39.8776 277.716 41.0903 277.104 42.1414C276.507 43.1924 275.69 44.009 274.653 44.5911C273.632 45.1571 272.486 45.4401 271.214 45.4401ZM271.214 42.4809C271.81 42.4809 272.368 42.3354 272.886 42.0444C273.42 41.7371 273.844 41.2844 274.159 40.6861C274.473 40.0878 274.63 39.3601 274.63 38.5031C274.63 37.2257 274.3 36.2474 273.64 35.5683C272.996 34.8729 272.203 34.5253 271.261 34.5253C270.318 34.5253 269.525 34.8729 268.881 35.5683C268.253 36.2474 267.939 37.2257 267.939 38.5031C267.939 39.7806 268.245 40.7669 268.857 41.4622C269.486 42.1414 270.271 42.4809 271.214 42.4809Z" fill="white"/>
<path d="M296.652 31.5904C298.254 31.5904 299.542 32.0998 300.516 33.1185C301.505 34.121 302 35.5278 302 37.3389V45.2218H298.701V37.7997C298.701 36.7487 298.442 35.9483 297.924 35.3985C297.406 34.8325 296.699 34.5496 295.803 34.5496C294.908 34.5496 294.194 34.8325 293.659 35.3985C293.141 35.9483 292.882 36.7487 292.882 37.7997V45.2218H289.584V37.7997C289.584 36.7487 289.324 35.9483 288.806 35.3985C288.288 34.8325 287.581 34.5496 286.686 34.5496C285.775 34.5496 285.052 34.8325 284.518 35.3985C284 35.9483 283.741 36.7487 283.741 37.7997V45.2218H280.442V31.7845H283.741V33.4096C284.165 32.8436 284.706 32.3989 285.366 32.0755C286.042 31.7521 286.78 31.5904 287.581 31.5904C288.602 31.5904 289.513 31.8168 290.314 32.2696C291.115 32.7062 291.735 33.3368 292.175 34.1615C292.599 33.3853 293.212 32.7628 294.013 32.2938C294.83 31.8249 295.709 31.5904 296.652 31.5904Z" fill="white"/>
<path d="M236.539 45.2218L232.427 39.2329L228.968 45.2218H221.859L228.93 34.2099L221.667 23.6617H229.045L233.157 29.612L236.616 23.6617H243.726L236.539 34.519L243.918 45.2218H236.539Z" fill="#F53400"/>
<path d="M46.8102 7.16652C49.4761 7.16652 52.0035 8.23016 53.9164 10.1569C55.8293 12.0837 56.8766 14.6207 56.8766 17.3147V42.8335H36.7439V17.3147C36.7439 14.6295 37.7998 12.0837 39.704 10.1569C41.6169 8.23016 44.1443 7.16652 46.8102 7.16652ZM46.8102 0C37.3497 0 29.6204 7.79424 29.6204 17.3147V50H64.0001V17.3147C64.0001 12.5545 62.0699 8.22144 58.9539 5.09154C55.8379 1.9442 51.5448 0 46.8102 0Z" fill="#00AEEF"/>
<path d="M29.6203 17.5327V50.0001H4V17.5327C4 10.4098 9.74727 4.62952 16.8102 4.62952C20.2204 4.62952 23.423 5.98087 25.8552 8.42202C28.2787 10.8893 29.6203 14.1151 29.6203 17.5327Z" fill="#00AEEF"/>
</g>
<defs>
<filter id="filter0_d" x="0" y="0" width="306" height="59" filterUnits="userSpaceOnUse" color-interpolation-filters="sRGB">
<feFlood flood-opacity="0" result="BackgroundImageFix"/>
<feColorMatrix in="SourceAlpha" type="matrix" values="0 0 0 0 0 0 0 0 0 0 0 0 0 0 0 0 0 0 127 0" result="hardAlpha"/>
<feOffset dy="4"/>
<feGaussianBlur stdDeviation="2"/>
<feComposite in2="hardAlpha" operator="out"/>
<feColorMatrix type="matrix" values="0 0 0 0 0 0 0 0 0 0 0 0 0 0 0 0 0 0 0.25 0"/>
<feBlend mode="normal" in2="BackgroundImageFix" result="effect1_dropShadow"/>
<feBlend mode="normal" in="SourceGraphic" in2="effect1_dropShadow" result="shape"/>
</filter>
</defs>
</svg>
