<svg width="296" height="256" viewBox="0 0 296 256" fill="none" xmlns="http://www.w3.org/2000/svg">
<path d="M77.9212 25.045H208.042C213.46 25.045 217.852 29.4367 217.852 34.8554V213.513C217.852 218.931 213.46 223.324 208.042 223.324H77.9212C72.503 223.324 68.1108 218.931 68.1108 213.513V34.8554C68.1108 29.4367 72.503 25.045 77.9212 25.045Z" fill="#41475B"/>
<path d="M78.9541 210.931H207.009V36.4045H78.9541V210.931Z" fill="white"/>
<path d="M110.832 56.5749C110.556 56.8117 110.112 56.9301 109.481 56.9301H107.596V54.2267H109.461C109.885 54.2267 110.211 54.2563 110.448 54.3253C110.674 54.3845 110.862 54.5227 111.01 54.7595C111.158 54.9864 111.227 55.2528 111.227 55.5488C111.227 55.9928 111.099 56.3381 110.832 56.5749ZM111.888 54.2563C111.651 53.8715 111.326 53.6347 110.911 53.5163C110.507 53.4078 109.994 53.3486 109.382 53.3486H106.609V60.7781H107.596V57.8083H109.471C110.369 57.8083 111.059 57.6109 111.533 57.2261C112.016 56.8413 112.253 56.2691 112.253 55.5192C112.253 55.0555 112.135 54.6312 111.888 54.2563Z" fill="#41475B"/>
<path d="M116.713 56.7229H114.522V54.1675H116.871C117.926 54.1675 118.459 54.5819 118.459 55.4304C118.459 55.904 118.321 56.2395 118.045 56.4269C117.768 56.6243 117.324 56.7229 116.713 56.7229ZM118.992 58.7555C118.716 58.0253 118.321 57.5813 117.808 57.4136V57.3939C118.321 57.2853 118.735 57.0584 119.031 56.7229C119.327 56.3776 119.475 55.9435 119.475 55.4304C119.475 54.9864 119.357 54.5819 119.13 54.2168C118.903 53.8616 118.607 53.6248 118.242 53.5163C117.877 53.4078 117.403 53.3486 116.831 53.3486H113.536V60.7781H114.522V57.6011H116.338C116.723 57.6011 117.058 57.7096 117.344 57.9365C117.64 58.1536 117.847 58.4496 117.966 58.7949L118.666 60.7781H119.732L118.992 58.7555Z" fill="#41475B"/>
<path d="M122.021 59.9V57.384H126.116V56.496H122.021V54.2267H126.402V53.3486H121.034V60.7781H126.58V59.9H122.021Z" fill="#41475B"/>
<path d="M133.101 57.4728C132.825 57.1768 132.49 56.9597 132.105 56.8117C131.71 56.6736 131.187 56.5256 130.526 56.3875C129.865 56.2395 129.411 56.0915 129.174 55.9336C128.928 55.7757 128.809 55.5488 128.809 55.2331C128.809 54.8877 128.957 54.6213 129.263 54.4141C129.559 54.2069 129.983 54.0984 130.536 54.0984C131.671 54.0984 132.282 54.5523 132.381 55.4501H133.338C133.309 54.7397 133.032 54.1971 132.519 53.8024C132.006 53.4176 131.335 53.2203 130.497 53.2203C129.697 53.2203 129.056 53.4176 128.573 53.8024C128.099 54.1872 127.852 54.6805 127.852 55.2824C127.852 55.8152 128.04 56.2395 128.405 56.5651C128.78 56.8808 129.391 57.1373 130.24 57.3149C131.089 57.4925 131.69 57.68 132.036 57.8675C132.381 58.0549 132.559 58.3509 132.559 58.7555C132.559 59.1501 132.391 59.456 132.055 59.6829C131.72 59.9099 131.276 60.0184 130.723 60.0184C130.141 60.0184 129.648 59.8901 129.234 59.6237C128.829 59.3573 128.592 58.9429 128.543 58.3904H127.596C127.625 59.1304 127.892 59.7323 128.415 60.2059C128.928 60.6696 129.717 60.9064 130.763 60.9064C131.582 60.9064 132.243 60.6992 132.756 60.2749C133.259 59.8507 133.516 59.3179 133.516 58.6765C133.516 58.1733 133.378 57.7787 133.101 57.4728Z" fill="#41475B"/>
<path d="M139.396 59.6336C139.041 59.9197 138.567 60.0677 137.985 60.0677C137.235 60.0677 136.653 59.8013 136.209 59.2883C135.775 58.7653 135.558 58.0253 135.558 57.0584C135.558 56.1013 135.775 55.3613 136.219 54.8384C136.653 54.3253 137.255 54.0589 138.005 54.0589C138.567 54.0589 139.031 54.1971 139.396 54.4733C139.761 54.7595 139.968 55.1245 140.008 55.5981H141.014C140.945 54.8877 140.629 54.3155 140.057 53.8715C139.495 53.4373 138.804 53.2203 137.995 53.2203C136.949 53.2203 136.111 53.5656 135.479 54.2563C134.857 54.9469 134.542 55.8843 134.542 57.0584C134.542 58.2424 134.857 59.1797 135.479 59.8704C136.111 60.5611 136.949 60.9064 137.995 60.9064C138.834 60.9064 139.534 60.6893 140.087 60.2552C140.639 59.8211 140.945 59.2093 141.014 58.42H140.008C139.959 58.9528 139.751 59.3573 139.396 59.6336Z" fill="#41475B"/>
<path d="M145.563 56.7229H143.363V54.1675H145.711C146.776 54.1675 147.309 54.5819 147.309 55.4304C147.309 55.904 147.171 56.2395 146.895 56.4269C146.619 56.6243 146.175 56.7229 145.563 56.7229ZM147.832 58.7555C147.566 58.0253 147.171 57.5813 146.648 57.4136V57.3939C147.171 57.2853 147.576 57.0584 147.872 56.7229C148.168 56.3776 148.316 55.9435 148.316 55.4304C148.316 54.9864 148.207 54.5819 147.97 54.2168C147.743 53.8616 147.447 53.6248 147.082 53.5163C146.717 53.4078 146.244 53.3486 145.671 53.3486H142.386V60.7781H143.363V57.6011H145.188C145.563 57.6011 145.898 57.7096 146.194 57.9365C146.48 58.1536 146.688 58.4496 146.816 58.7949L147.516 60.7781H148.582L147.832 58.7555Z" fill="#41475B"/>
<path d="M150.003 53.3486V60.7781H150.99V53.3486H150.003Z" fill="#41475B"/>
<path d="M156.979 56.5749C156.712 56.8117 156.258 56.9301 155.627 56.9301H153.752V54.2267H155.607C156.041 54.2267 156.367 54.2563 156.594 54.3253C156.821 54.3845 157.008 54.5227 157.156 54.7595C157.304 54.9864 157.383 55.2528 157.383 55.5488C157.383 55.9928 157.245 56.3381 156.979 56.5749ZM158.044 54.2563C157.798 53.8715 157.482 53.6347 157.067 53.5163C156.653 53.4078 156.15 53.3486 155.538 53.3486H152.766V60.7781H153.752V57.8083H155.617C156.525 57.8083 157.206 57.6109 157.689 57.2261C158.163 56.8413 158.399 56.2691 158.399 55.5192C158.399 55.0555 158.281 54.6312 158.044 54.2563Z" fill="#41475B"/>
<path d="M159.09 53.3486V54.2267H161.527V60.7781H162.514V54.2267H164.971V53.3486H159.09Z" fill="#41475B"/>
<path d="M166.155 53.3486V60.7781H167.141V53.3486H166.155Z" fill="#41475B"/>
<path d="M173.949 59.2784C173.476 59.8013 172.864 60.0677 172.124 60.0677C171.384 60.0677 170.782 59.8013 170.309 59.2685C169.825 58.7456 169.588 58.0056 169.588 57.0584C169.588 56.1211 169.825 55.3811 170.309 54.8483C170.782 54.3253 171.394 54.0589 172.144 54.0589C172.874 54.0589 173.486 54.3253 173.959 54.8483C174.423 55.3811 174.66 56.1211 174.66 57.0584C174.66 58.0056 174.423 58.7456 173.949 59.2784ZM174.689 54.276C174.028 53.5755 173.18 53.2203 172.134 53.2203C171.088 53.2203 170.239 53.5755 169.569 54.276C168.907 54.9765 168.572 55.904 168.572 57.0584C168.572 58.2128 168.907 59.1403 169.569 59.8507C170.239 60.5512 171.088 60.9064 172.134 60.9064C173.18 60.9064 174.028 60.5512 174.689 59.8507C175.35 59.1501 175.686 58.2227 175.686 57.0584C175.686 55.904 175.35 54.9765 174.689 54.276Z" fill="#41475B"/>
<path d="M181.892 53.3486V59.2093L177.995 53.3486H176.988V60.7781H177.926V54.9173L181.813 60.7781H182.829V53.3486H181.892Z" fill="#41475B"/>
<path d="M102.504 52.6845H98.1252V48.3067H90.2026V52.6845H85.8242V60.6074H90.2026V64.9863H98.1252V60.6074H102.504V52.6845Z" fill="#41475B"/>
<path d="M197.708 74.1593H86.792V72.4918H197.708V74.1593Z" fill="#41475B"/>
<path d="M197.708 91.2553H86.792V89.5878H197.708V91.2553Z" fill="#41475B"/>
<path d="M197.708 108.351H86.792V106.684H197.708V108.351Z" fill="#41475B"/>
<path d="M197.708 125.448H86.792V123.78H197.708V125.448Z" fill="#41475B"/>
<path d="M197.708 161.945H155.593V160.276H197.708V161.945Z" fill="#41475B"/>
<path d="M197.708 182.377H155.593V180.709H197.708V182.377Z" fill="#41475B"/>
<path d="M142.978 6.52133C146.579 6.52133 149.5 9.44188 149.5 13.0432C149.5 16.6445 146.579 19.5651 142.978 19.5651C139.377 19.5651 136.456 16.6445 136.456 13.0432C136.456 9.44188 139.377 6.52133 142.978 6.52133ZM169.569 19.9005H159.761C157.245 19.9005 155.262 17.6608 155.676 15.1744C155.795 14.4837 155.854 13.7635 155.854 13.0432C155.854 5.46561 149.322 -0.582661 141.577 0.236271C135.647 0.867737 130.842 5.65307 130.181 11.5829C130.053 12.7669 130.082 13.9213 130.26 15.0264C130.654 17.572 128.78 19.9005 126.205 19.9005H116.387C113.99 19.9005 112.046 21.8443 112.046 24.2419V41.3013H173.92V24.2419C173.92 21.8443 171.976 19.9005 169.569 19.9005Z" fill="#6D7480"/>
<path d="M173.92 33.7603V41.3023H112.044V33.7603H173.92Z" fill="#4E566D"/>
<path d="M199.247 154.167C202.922 156.896 216.643 169.566 221.376 173.957C221.516 173.724 221.654 173.493 221.789 173.268C225.533 167.039 224.009 162.506 223.705 160.871C223.5 159.771 220.365 156.172 217.871 154.08V134.992C225.068 137.68 241.624 142.758 249.075 153.547C250.94 156.247 254.377 185.211 255.454 190.158C256.532 195.105 266.79 203.805 266.79 203.805L246.266 223.576L242.449 219.19C235.729 211.682 221.992 211.01 217.324 199.996C216.67 198.454 216.22 196.943 215.929 195.466C213.921 191.997 211.427 186.8 209.113 183.445C205.24 177.831 197.142 171.731 193.168 168.003C189.193 164.275 188.72 161.945 188.72 161.945C185.533 152.537 195.285 151.225 199.247 154.167Z" fill="#F5AD5B"/>
<path d="M203.176 159.698C203.176 159.698 198.1 154.952 196.624 154.233C195.348 153.613 190.02 154.504 189.833 160.154C189.833 160.154 191.101 163.461 193.587 165.637C196.073 167.812 197.342 167.799 199.179 167.393C201.017 166.988 203.72 162.728 203.862 162.129C204.005 161.531 203.792 160.214 203.176 159.698Z" fill="#F7D9BD"/>
<path d="M296 244.13L283.894 256H268.393L244.674 231.807L236.543 223.519L241.723 218.438L261.625 198.931L264.071 196.524L272.202 204.822L296 229.094V244.13Z" fill="#F7F8FA"/>
<path d="M296 244.13V256H263.164L242.01 234.422L244.674 231.807L272.202 204.822L273.534 203.519L296 226.43V229.094V244.13Z" fill="white"/>
<path d="M86.7357 110.023C83.0616 112.752 69.34 125.422 64.6067 129.813C64.4675 129.579 64.3295 129.349 64.1938 129.124C60.4499 122.895 61.9742 118.362 62.2787 116.726C62.4834 115.627 65.618 112.028 68.1124 109.936V90.8478C60.9155 93.5355 44.3596 98.6129 36.9079 109.403C35.0437 112.103 31.6069 141.066 30.5289 146.013C29.4508 150.96 19.1934 159.661 19.1934 159.661L39.7168 179.431L43.5347 175.046C50.2549 167.537 63.9912 166.865 68.6593 155.85C69.313 154.309 69.7632 152.799 70.0545 151.321C72.0617 147.851 74.5566 142.656 76.8706 139.301C80.7429 133.687 88.8413 127.586 92.8157 123.859C96.79 120.131 97.263 117.801 97.263 117.801C100.45 108.392 90.6982 107.08 86.7357 110.023Z" fill="#F5AD5B"/>
<path d="M82.8063 115.554C82.8063 115.554 87.8826 110.807 89.3595 110.089C90.6353 109.468 95.9625 110.359 96.1502 116.009C96.1502 116.009 94.8829 119.317 92.3962 121.493C89.9095 123.667 88.6408 123.653 86.8039 123.248C84.9669 122.842 82.2636 118.584 82.1207 117.985C81.978 117.386 82.1912 116.07 82.8063 115.554Z" fill="#F7D9BD"/>
<path d="M49.4421 179.375L41.3116 187.673L9.99503 219.602L0 209.804V174.728L13.7836 160.678L21.9141 152.38L24.3606 154.788L44.2621 174.294L49.4421 179.375Z" fill="#F7F8FA"/>
<path d="M41.3116 187.673L13.7836 160.678L12.4516 159.376L0 172.074V237.293L43.9661 190.278L41.3116 187.673Z" fill="white"/>
<path d="M273.391 89.4773H246.555C244.403 89.4773 242.659 91.2217 242.659 93.3737V134.062C242.659 136.214 244.403 137.958 246.555 137.958H273.391C275.543 137.958 277.288 136.214 277.288 134.062V93.3737C277.288 91.2217 275.543 89.4773 273.391 89.4773Z" fill="#DAD9D7"/>
<path d="M248.957 101.679C247.481 101.679 246.28 100.479 246.28 99.0026C246.28 97.5275 247.481 96.3268 248.957 96.3268H255.113C256.589 96.3268 257.79 97.5275 257.79 99.0026C257.79 100.479 256.589 101.679 255.113 101.679H248.957Z" fill="#BFBEBE"/>
<path d="M255.114 96.9069H252.035V101.099H255.114C256.271 101.099 257.209 100.161 257.209 99.0026C257.209 97.8452 256.271 96.9069 255.114 96.9069Z" fill="white"/>
<path d="M248.957 96.9069H252.035V101.099H248.957C247.799 101.099 246.861 100.161 246.861 99.0026C246.861 97.8452 247.799 96.9069 248.957 96.9069Z" fill="#E8302D"/>
<path d="M264.833 101.679C263.357 101.679 262.156 100.479 262.156 99.0026C262.156 97.5275 263.357 96.3268 264.833 96.3268H270.99C272.466 96.3268 273.667 97.5275 273.667 99.0026C273.667 100.479 272.466 101.679 270.99 101.679H264.833Z" fill="#BFBEBE"/>
<path d="M270.99 96.9069H267.912V101.099H270.99C272.147 101.099 273.086 100.161 273.086 99.0026C273.086 97.8452 272.147 96.9069 270.99 96.9069Z" fill="white"/>
<path d="M264.833 96.9069H267.912V101.099H264.833C263.676 101.099 262.738 100.161 262.738 99.0026C262.738 97.8452 263.676 96.9069 264.833 96.9069Z" fill="#E8302D"/>
<path d="M248.957 109.037C247.481 109.037 246.28 107.836 246.28 106.36C246.28 104.884 247.481 103.683 248.957 103.683H255.113C256.589 103.683 257.79 104.884 257.79 106.36C257.79 107.836 256.589 109.037 255.113 109.037H248.957Z" fill="#BFBEBE"/>
<path d="M255.114 104.264H252.035V108.456H255.114C256.271 108.456 257.209 107.518 257.209 106.36C257.209 105.203 256.271 104.264 255.114 104.264Z" fill="white"/>
<path d="M248.957 104.264H252.035V108.456H248.957C247.799 108.456 246.861 107.518 246.861 106.36C246.861 105.203 247.799 104.264 248.957 104.264Z" fill="#E8302D"/>
<path d="M264.833 109.037C263.357 109.037 262.156 107.836 262.156 106.36C262.156 104.884 263.357 103.683 264.833 103.683H270.99C272.466 103.683 273.667 104.884 273.667 106.36C273.667 107.836 272.466 109.037 270.99 109.037H264.833Z" fill="#BFBEBE"/>
<path d="M270.99 104.264H267.912V108.456H270.99C272.147 108.456 273.086 107.518 273.086 106.36C273.086 105.203 272.147 104.264 270.99 104.264Z" fill="white"/>
<path d="M264.833 104.264H267.912V108.456H264.833C263.676 108.456 262.738 107.518 262.738 106.36C262.738 105.203 263.676 104.264 264.833 104.264Z" fill="#E8302D"/>
<path d="M248.957 116.395C247.481 116.395 246.28 115.194 246.28 113.718C246.28 112.242 247.481 111.041 248.957 111.041H255.113C256.589 111.041 257.79 112.242 257.79 113.718C257.79 115.194 256.589 116.395 255.113 116.395H248.957Z" fill="#BFBEBE"/>
<path d="M255.114 111.622H252.035V115.813H255.114C256.271 115.813 257.209 114.875 257.209 113.718C257.209 112.56 256.271 111.622 255.114 111.622Z" fill="white"/>
<path d="M248.957 111.622H252.035V115.813H248.957C247.799 115.813 246.861 114.875 246.861 113.718C246.861 112.56 247.799 111.622 248.957 111.622Z" fill="#E8302D"/>
<path d="M264.833 116.395C263.357 116.395 262.156 115.194 262.156 113.718C262.156 112.242 263.357 111.041 264.833 111.041H270.99C272.466 111.041 273.667 112.242 273.667 113.718C273.667 115.194 272.466 116.395 270.99 116.395H264.833Z" fill="#BFBEBE"/>
<path d="M270.99 111.622H267.912V115.813H270.99C272.147 115.813 273.086 114.875 273.086 113.718C273.086 112.56 272.147 111.622 270.99 111.622Z" fill="white"/>
<path d="M264.833 111.622H267.912V115.813H264.833C263.676 115.813 262.738 114.875 262.738 113.718C262.738 112.56 263.676 111.622 264.833 111.622Z" fill="#E8302D"/>
<path d="M248.957 123.752C247.481 123.752 246.28 122.551 246.28 121.075C246.28 119.599 247.481 118.398 248.957 118.398H255.113C256.589 118.398 257.79 119.599 257.79 121.075C257.79 122.551 256.589 123.752 255.113 123.752H248.957Z" fill="#BFBEBE"/>
<path d="M255.114 118.98H252.035V123.171H255.114C256.271 123.171 257.209 122.233 257.209 121.075C257.209 119.918 256.271 118.98 255.114 118.98Z" fill="white"/>
<path d="M248.957 118.98H252.035V123.171H248.957C247.799 123.171 246.861 122.233 246.861 121.075C246.861 119.918 247.799 118.98 248.957 118.98Z" fill="#E8302D"/>
<path d="M264.833 123.752C263.357 123.752 262.156 122.551 262.156 121.075C262.156 119.599 263.357 118.398 264.833 118.398H270.99C272.466 118.398 273.667 119.599 273.667 121.075C273.667 122.551 272.466 123.752 270.99 123.752H264.833Z" fill="#BFBEBE"/>
<path d="M270.99 118.98H267.912V123.171H270.99C272.147 123.171 273.086 122.233 273.086 121.075C273.086 119.918 272.147 118.98 270.99 118.98Z" fill="white"/>
<path d="M264.833 118.98H267.912V123.171H264.833C263.676 123.171 262.738 122.233 262.738 121.075C262.738 119.918 263.676 118.98 264.833 118.98Z" fill="#E8302D"/>
<path d="M248.957 131.11C247.481 131.11 246.28 129.909 246.28 128.433C246.28 126.957 247.481 125.756 248.957 125.756H255.113C256.589 125.756 257.79 126.957 257.79 128.433C257.79 129.909 256.589 131.11 255.113 131.11H248.957Z" fill="#BFBEBE"/>
<path d="M255.114 126.337H252.035V130.529H255.114C256.271 130.529 257.209 129.59 257.209 128.433C257.209 127.276 256.271 126.337 255.114 126.337Z" fill="white"/>
<path d="M248.957 126.337H252.035V130.529H248.957C247.799 130.529 246.861 129.59 246.861 128.433C246.861 127.276 247.799 126.337 248.957 126.337Z" fill="#E8302D"/>
<path d="M264.833 131.11C263.357 131.11 262.156 129.909 262.156 128.433C262.156 126.957 263.357 125.756 264.833 125.756H270.99C272.466 125.756 273.667 126.957 273.667 128.433C273.667 129.909 272.466 131.11 270.99 131.11H264.833Z" fill="#BFBEBE"/>
<path d="M270.99 126.337H267.912V130.529H270.99C272.147 130.529 273.086 129.59 273.086 128.433C273.086 127.276 272.147 126.337 270.99 126.337Z" fill="white"/>
<path d="M264.833 126.337H267.912V130.529H264.833C263.676 130.529 262.738 129.59 262.738 128.433C262.738 127.276 263.676 126.337 264.833 126.337Z" fill="#E8302D"/>
<path d="M257.144 41.3546H230.308C228.156 41.3546 226.411 43.0981 226.411 45.25V85.9381C226.411 88.0901 228.156 89.8345 230.308 89.8345H257.144C259.296 89.8345 261.04 88.0901 261.04 85.9381V45.25C261.04 43.0981 259.296 41.3546 257.144 41.3546Z" fill="#DAD9D7"/>
<path d="M232.709 53.5557C231.233 53.5557 230.032 52.355 230.032 50.8789C230.032 49.4029 231.233 48.2031 232.709 48.2031H238.866C240.342 48.2031 241.543 49.4029 241.543 50.8789C241.543 52.355 240.342 53.5557 238.866 53.5557H232.709Z" fill="#BFBEBE"/>
<path d="M248.586 53.5557C247.11 53.5557 245.909 52.355 245.909 50.8789C245.909 49.4029 247.11 48.2031 248.586 48.2031H254.743C256.219 48.2031 257.419 49.4029 257.419 50.8789C257.419 52.355 256.219 53.5557 254.743 53.5557H248.586Z" fill="#BFBEBE"/>
<path d="M232.709 60.9133C231.233 60.9133 230.032 59.7126 230.032 58.2365C230.032 56.7605 231.233 55.5597 232.709 55.5597H238.866C240.342 55.5597 241.543 56.7605 241.543 58.2365C241.543 59.7126 240.342 60.9133 238.866 60.9133H232.709Z" fill="#BFBEBE"/>
<path d="M248.586 60.9133C247.11 60.9133 245.909 59.7126 245.909 58.2365C245.909 56.7605 247.11 55.5597 248.586 55.5597H254.743C256.219 55.5597 257.419 56.7605 257.419 58.2365C257.419 59.7126 256.219 60.9133 254.743 60.9133H248.586Z" fill="#BFBEBE"/>
<path d="M232.709 68.2709C231.233 68.2709 230.032 67.0701 230.032 65.594C230.032 64.118 231.233 62.9172 232.709 62.9172H238.866C240.342 62.9172 241.543 64.118 241.543 65.594C241.543 67.0701 240.342 68.2709 238.866 68.2709H232.709Z" fill="#BFBEBE"/>
<path d="M248.586 68.2709C247.11 68.2709 245.909 67.0701 245.909 65.594C245.909 64.118 247.11 62.9172 248.586 62.9172H254.743C256.219 62.9172 257.419 64.118 257.419 65.594C257.419 67.0701 256.219 68.2709 254.743 68.2709H248.586Z" fill="#BFBEBE"/>
<path d="M232.709 75.6285C231.233 75.6285 230.032 74.4277 230.032 72.9516C230.032 71.4756 231.233 70.2748 232.709 70.2748H238.866C240.342 70.2748 241.543 71.4756 241.543 72.9516C241.543 74.4277 240.342 75.6285 238.866 75.6285H232.709Z" fill="#BFBEBE"/>
<path d="M248.586 75.6285C247.11 75.6285 245.909 74.4277 245.909 72.9516C245.909 71.4756 247.11 70.2748 248.586 70.2748H254.743C256.219 70.2748 257.419 71.4756 257.419 72.9516C257.419 74.4277 256.219 75.6285 254.743 75.6285H248.586Z" fill="#BFBEBE"/>
<path d="M232.709 82.986C231.233 82.986 230.032 81.7852 230.032 80.3092C230.032 78.8331 231.233 77.6324 232.709 77.6324H238.866C240.342 77.6324 241.543 78.8331 241.543 80.3092C241.543 81.7852 240.342 82.986 238.866 82.986H232.709Z" fill="#BFBEBE"/>
<path d="M248.586 82.986C247.11 82.986 245.909 81.7852 245.909 80.3092C245.909 78.8331 247.11 77.6324 248.586 77.6324H254.743C256.219 77.6324 257.419 78.8331 257.419 80.3092C257.419 81.7852 256.219 82.986 254.743 82.986H248.586Z" fill="#BFBEBE"/>
<path d="M238.866 48.7832H232.709C231.552 48.7832 230.614 49.7216 230.614 50.8789C230.614 52.0363 231.552 52.9756 232.709 52.9756H235.788H238.866C240.023 52.9756 240.962 52.0363 240.962 50.8789C240.962 49.7216 240.023 48.7832 238.866 48.7832Z" fill="#EFEF2F"/>
<path d="M248.586 52.9756H254.742C255.9 52.9756 256.838 52.0363 256.838 50.8789C256.838 49.7216 255.9 48.7832 254.742 48.7832H251.664H248.586C247.428 48.7832 246.49 49.7216 246.49 50.8789C246.49 52.0363 247.428 52.9756 248.586 52.9756Z" fill="#EFEF2F"/>
<path d="M238.866 56.1408H232.709C231.552 56.1408 230.614 57.0791 230.614 58.2365C230.614 59.3939 231.552 60.3322 232.709 60.3322H235.788H238.866C240.023 60.3322 240.962 59.3939 240.962 58.2365C240.962 57.0791 240.023 56.1408 238.866 56.1408Z" fill="#EFEF2F"/>
<path d="M254.742 56.1408H248.586C247.428 56.1408 246.49 57.0791 246.49 58.2365C246.49 59.3939 247.428 60.3322 248.586 60.3322H251.664H254.742C255.9 60.3322 256.838 59.3939 256.838 58.2365C256.838 57.0791 255.9 56.1408 254.742 56.1408Z" fill="#EFEF2F"/>
<path d="M238.866 63.4984H232.709C231.552 63.4984 230.614 64.4367 230.614 65.594C230.614 66.7514 231.552 67.6897 232.709 67.6897H235.788H238.866C240.023 67.6897 240.962 66.7514 240.962 65.594C240.962 64.4367 240.023 63.4984 238.866 63.4984Z" fill="#EFEF2F"/>
<path d="M254.742 63.4984H248.586C247.428 63.4984 246.49 64.4367 246.49 65.594C246.49 66.7514 247.428 67.6897 248.586 67.6897H251.664H254.742C255.9 67.6897 256.838 66.7514 256.838 65.594C256.838 64.4367 255.9 63.4984 254.742 63.4984Z" fill="#EFEF2F"/>
<path d="M238.866 70.856H232.709C231.552 70.856 230.614 71.7943 230.614 72.9516C230.614 74.109 231.552 75.0473 232.709 75.0473H235.788H238.866C240.023 75.0473 240.962 74.109 240.962 72.9516C240.962 71.7943 240.023 70.856 238.866 70.856Z" fill="#EFEF2F"/>
<path d="M254.742 70.856H248.586C247.428 70.856 246.49 71.7943 246.49 72.9516C246.49 74.109 247.428 75.0473 248.586 75.0473H251.664H254.742C255.9 75.0473 256.838 74.109 256.838 72.9516C256.838 71.7943 255.9 70.856 254.742 70.856Z" fill="#EFEF2F"/>
<path d="M238.866 78.2135H232.709C231.552 78.2135 230.614 79.1518 230.614 80.3092C230.614 81.4665 231.552 82.4049 232.709 82.4049H235.788H238.866C240.023 82.4049 240.962 81.4665 240.962 80.3092C240.962 79.1518 240.023 78.2135 238.866 78.2135Z" fill="#EFEF2F"/>
<path d="M254.742 78.2135H248.586C247.428 78.2135 246.49 79.1518 246.49 80.3092C246.49 81.4665 247.428 82.4049 248.586 82.4049H251.664H254.742C255.9 82.4049 256.838 81.4665 256.838 80.3092C256.838 79.1518 255.9 78.2135 254.742 78.2135Z" fill="#EFEF2F"/>
<path d="M277.124 78.6703L258.147 59.6938C256.626 58.1723 254.159 58.1723 252.638 59.6938L223.867 88.465C222.345 89.9864 222.345 92.4531 223.867 93.9745L242.843 112.951C244.365 114.473 246.831 114.473 248.353 112.951L277.124 84.1799C278.645 82.6584 278.645 80.1918 277.124 78.6703Z" fill="#C3C290"/>
<path d="M259.16 72.6655C257.232 73.9916 254.594 73.5042 253.268 71.5762C251.942 69.6483 252.43 67.0109 254.358 65.6848C256.286 64.3587 258.923 64.8462 260.249 66.7741C261.575 68.702 261.088 71.3394 259.16 72.6655Z" fill="#DAD9D7"/>
<path d="M259.122 72.2856C260.777 71.0306 261.171 68.6863 259.982 66.9576C258.793 65.229 256.462 64.7593 254.699 65.8545L259.122 72.2856Z" fill="white"/>
<path d="M254.395 66.0637C252.741 67.3197 252.346 69.6631 253.536 71.3917C254.725 73.1213 257.054 73.591 258.818 72.4948L254.395 66.0637Z" fill="white"/>
<path d="M271.499 81.8149C270.529 83.9441 268.017 84.8844 265.888 83.9155C263.758 82.9456 262.817 80.4335 263.787 78.3043C264.756 76.1741 267.268 75.2338 269.399 76.2037C271.528 77.1726 272.468 79.6847 271.499 81.8149Z" fill="#DAD9D7"/>
<path d="M271.271 81.508C272.043 79.58 271.174 77.3679 269.263 76.4987C267.354 75.6294 265.115 76.4267 264.167 78.2747L271.271 81.508Z" fill="white"/>
<path d="M264.014 78.6102C263.244 80.5381 264.112 82.7502 266.022 83.6195C267.932 84.4887 270.171 83.6915 271.118 81.8435L264.014 78.6102Z" fill="white"/>
<path d="M253.179 76.6447C253.362 78.9772 251.621 81.0176 249.288 81.2021C246.956 81.3866 244.915 79.6452 244.732 77.3127C244.547 74.9802 246.289 72.9398 248.621 72.7553C250.954 72.5708 252.994 74.3122 253.179 76.6447Z" fill="#DAD9D7"/>
<path d="M252.831 76.4878C252.571 74.4267 250.739 72.9132 248.647 73.0789C246.555 73.2437 244.984 75.0266 245.05 77.1025L252.831 76.4878Z" fill="white"/>
<path d="M245.079 77.4695C245.339 79.5307 247.171 81.0442 249.264 80.8785C251.355 80.7137 252.927 78.9308 252.86 76.8549L245.079 77.4695Z" fill="white"/>
<path d="M259.454 92.0821C257.123 91.869 255.408 89.8078 255.62 87.4773C255.833 85.1468 257.895 83.431 260.225 83.6441C262.555 83.8572 264.271 85.9184 264.058 88.2489C263.846 90.5784 261.783 92.2952 259.454 92.0821Z" fill="#DAD9D7"/>
<path d="M259.668 91.7664C261.742 91.8581 263.544 90.3081 263.735 88.2193C263.926 86.1296 262.435 84.2786 260.378 83.9934L259.668 91.7664Z" fill="white"/>
<path d="M260.01 83.9599C257.936 83.8671 256.134 85.4172 255.943 87.5069C255.752 89.5967 257.244 91.4477 259.3 91.7328L260.01 83.9599Z" fill="white"/>
<path d="M243.476 88.3249C241.519 89.6085 238.893 89.0629 237.609 87.1063C236.325 85.1508 236.871 82.5243 238.827 81.2406C240.783 79.957 243.41 80.5016 244.693 82.4582C245.977 84.4147 245.431 87.0412 243.476 88.3249Z" fill="#DAD9D7"/>
<path d="M243.446 87.944C245.127 86.7255 245.573 84.3911 244.422 82.6358C243.271 80.8815 240.952 80.3615 239.164 81.4182L243.446 87.944Z" fill="white"/>
<path d="M238.856 81.6205C237.175 82.84 236.729 85.1745 237.88 86.9288C239.032 88.683 241.35 89.204 243.138 88.1463L238.856 81.6205Z" fill="white"/>
<path d="M253.226 99.7327C250.981 100.39 248.627 99.1032 247.97 96.8576C247.312 94.6119 248.599 92.2587 250.844 91.6006C253.09 90.9435 255.443 92.2301 256.101 94.4758C256.759 96.7214 255.472 99.0746 253.226 99.7327Z" fill="#DAD9D7"/>
<path d="M253.31 99.3598C255.273 98.6839 256.379 96.5803 255.789 94.5665C255.199 92.5528 253.133 91.3796 251.115 91.869L253.31 99.3598Z" fill="white"/>
<path d="M250.761 91.9736C248.798 92.6494 247.691 94.753 248.281 96.7668C248.871 98.7806 250.938 99.9537 252.956 99.4634L250.761 91.9736Z" fill="white"/>
<path d="M237.482 91.6608C237.993 93.9439 236.556 96.2093 234.273 96.7204C231.99 97.2315 229.725 95.7949 229.214 93.5118C228.703 91.2286 230.138 88.9633 232.422 88.4522C234.705 87.9411 236.971 89.3777 237.482 91.6608Z" fill="#DAD9D7"/>
<path d="M237.116 91.5533C236.568 89.5503 234.541 88.3101 232.492 88.7689C230.445 89.2267 229.14 91.2138 229.499 93.2592L237.116 91.5533Z" fill="white"/>
<path d="M229.58 93.6194C230.127 95.6223 232.155 96.8625 234.202 96.4037C236.249 95.9449 237.555 93.9588 237.197 91.9134L229.58 93.6194Z" fill="white"/>
<path d="M247.227 106.466C245.572 108.12 242.891 108.12 241.236 106.466C239.581 104.812 239.581 102.129 241.236 100.475C242.891 98.8201 245.572 98.8201 247.227 100.475C248.882 102.129 248.882 104.812 247.227 106.466Z" fill="#DAD9D7"/>
<path d="M247.121 106.1C248.52 104.564 248.481 102.188 246.998 100.705C245.514 99.2207 243.137 99.1822 241.602 100.58L247.121 106.1Z" fill="white"/>
<path d="M241.342 100.841C239.943 102.376 239.982 104.753 241.465 106.237C242.949 107.721 245.326 107.758 246.861 106.36L241.342 100.841Z" fill="white"/>
</svg>
