<svg width="32" height="32" viewBox="0 0 32 32" fill="none" xmlns="http://www.w3.org/2000/svg">
<path d="M14.5453 12.3636H12.3635V10.1818C12.3635 9.74542 12.0726 9.45455 11.6363 9.45455H8.7272C8.29082 9.45455 7.99995 9.74549 7.99995 10.1818V12.3636H5.81807C5.3817 12.3636 5.09082 12.6545 5.09082 13.0909V16C5.09082 16.4364 5.38176 16.7272 5.81807 16.7272H7.99988V18.909C7.99988 19.3454 8.29082 19.6363 8.72713 19.6363H11.6362C12.0726 19.6363 12.3634 19.3454 12.3634 18.909C12.3634 18.4727 12.0725 18.1818 11.6362 18.1818H9.45438V16C9.45438 15.5636 9.16345 15.2727 8.72713 15.2727H6.54532V13.8182H8.72713C9.16351 13.8182 9.45438 13.5272 9.45438 13.0909V10.9091H10.9089V13.0909C10.9089 13.5273 11.1999 13.8182 11.6362 13.8182H13.818V15.2727H11.6362C11.1998 15.2727 10.9089 15.5637 10.9089 16C10.9089 16.4363 11.1999 16.7272 11.6362 16.7272H14.5453C14.9816 16.7272 15.2725 16.4363 15.2725 16V13.0909C15.2726 12.6545 14.9817 12.3636 14.5453 12.3636Z" fill="white"/>
<path d="M8.72725 25.4545C9.1289 25.4545 9.4545 25.1289 9.4545 24.7272C9.4545 24.3256 9.1289 24 8.72725 24C8.3256 24 8 24.3256 8 24.7272C8 25.1289 8.3256 25.4545 8.72725 25.4545Z" fill="white"/>
<path d="M25.4544 25.4545C25.8561 25.4545 26.1817 25.1289 26.1817 24.7272C26.1817 24.3256 25.8561 24 25.4544 24C25.0528 24 24.7272 24.3256 24.7272 24.7272C24.7272 25.1289 25.0528 25.4545 25.4544 25.4545Z" fill="white"/>
<path d="M31.1272 15.7091L29.0182 14.1091L26.9091 7.05449C26.7637 6.76356 26.4727 6.54543 26.1819 6.54543H25.4546V5.81818C25.4546 4.58181 24.5092 3.63637 23.2728 3.63637C22.0364 3.63637 21.091 4.58181 21.091 5.81818V6.54543H19.6364C19.2001 6.54543 18.9092 6.83637 18.9092 7.27268V24H12.2909C11.9273 22.3272 10.4727 21.0909 8.72731 21.0909C6.98187 21.0909 5.52731 22.3273 5.16369 24H2.18181C1.74544 24 1.45456 23.7091 1.45456 23.2727V8.72724C1.45456 8.29087 1.7455 7.99999 2.18181 7.99999H16.7272C17.1636 7.99999 17.4545 7.70906 17.4545 7.27274C17.4545 6.83643 17.1636 6.54549 16.7272 6.54549H2.18181C0.945437 6.54543 0 7.49093 0 8.72724V23.2727C0 24.5091 0.945437 25.4545 2.18181 25.4545H5.16362C5.52725 27.1272 6.98181 28.3636 8.72725 28.3636C10.4727 28.3636 11.9272 27.1272 12.2909 25.4545H19.6363C20.0727 25.4545 20.3636 25.1636 20.3636 24.7272V7.99999H25.6726L27.4181 13.8182H25.9635L26.1817 13.3818C26.3271 13.0182 26.1817 12.5818 25.8907 12.4364C25.5271 12.2909 25.0907 12.4364 24.9453 12.7273L24.2907 13.8182H22.5453C22.1089 13.8182 21.8181 14.1092 21.8181 14.5455C21.8181 14.9818 22.109 15.2727 22.5453 15.2727H28.1453L30.2544 16.8727C30.3998 17.0182 30.5453 17.2364 30.5453 17.4546V23.2727C30.5453 23.7091 30.2544 24 29.8181 24H29.0181C28.6544 22.3272 27.1999 21.0909 25.4544 21.0909C23.4181 21.0909 21.8181 22.6909 21.8181 24.7273C21.8181 26.7637 23.4181 28.3637 25.4544 28.3637C27.1999 28.3637 28.6544 27.1273 29.0181 25.4546H29.8181C31.0544 25.4546 31.9999 24.5092 31.9999 23.2728V17.4546C32 16.8 31.7091 16.1454 31.1272 15.7091ZM8.72725 26.9091C7.49087 26.9091 6.54544 25.9636 6.54544 24.7272C6.54544 23.4909 7.49087 22.5454 8.72725 22.5454C9.96362 22.5454 10.9091 23.4909 10.9091 24.7272C10.9091 25.9636 9.96362 26.9091 8.72725 26.9091ZM24 6.54543H22.5454V5.81818C22.5454 5.38181 22.8364 5.09093 23.2727 5.09093C23.709 5.09093 24 5.38181 24 5.81818V6.54543ZM25.4546 26.9091C24.2182 26.9091 23.2727 25.9636 23.2727 24.7272C23.2727 23.4909 24.2182 22.5454 25.4546 22.5454C26.6909 22.5454 27.6364 23.4909 27.6364 24.7272C27.6364 25.9636 26.6909 26.9091 25.4546 26.9091Z" fill="white"/>
</svg>
