<svg width="99" height="60" viewBox="0 0 99 60" fill="none" xmlns="http://www.w3.org/2000/svg">
<path d="M79.7956 13.7318C82.2142 14.8531 84.0598 16.8811 84.9849 19.4337C85.9099 21.9863 85.793 24.7286 84.6599 27.1727L73.9267 50.3245L55.6614 41.8566L66.3946 18.7049C67.524 16.2687 69.5527 14.4032 72.0907 13.456C74.6366 12.5125 77.3769 12.6106 79.7956 13.7318ZM82.8098 7.23005C74.2268 3.25098 63.9361 7.0713 59.9318 15.7087L46.1844 45.3623L77.3753 59.8224L91.1227 30.1688C93.1248 25.8501 93.1962 21.1071 91.6856 16.957C90.1824 12.791 87.1052 9.22141 82.8098 7.23005Z" fill="#00AEEF"/>
<path d="M28.6775 17.6475L43.9894 46.2774L21.3971 58.3602L6.08527 29.7302C2.72604 23.4492 5.06799 15.6416 11.2961 12.3107C14.3033 10.7024 17.7647 10.3837 21.0607 11.3892C24.3614 12.422 27.0657 14.6338 28.6775 17.6475Z" fill="#00AEEF"/>
</svg>
