<svg width="39" height="39" viewBox="0 0 39 39" fill="none" xmlns="http://www.w3.org/2000/svg">
<g clip-path="url(#clip0)">
<path d="M31.077 37.9269H27.4301V36.8275C27.4301 34.3098 26.7587 32.3666 25.4345 31.0519C23.747 29.3765 21.6273 29.3725 21.5422 29.3725H18.8545V27.6601C20.5714 26.9486 21.657 25.7642 22.3185 24.7372C23.351 23.1339 23.5839 21.591 23.5932 21.5261C23.597 21.5007 23.5988 21.4749 23.5988 21.4492V21.3343C23.9757 21.2413 24.3036 21.0469 24.5639 20.7586C25.3235 19.9175 25.2794 18.5905 25.2252 18.0591C25.1839 17.6546 25.0009 17.3151 24.6959 17.0774C24.3623 16.8173 23.9411 16.7266 23.5988 16.7013V15.6738V12.1149C23.5988 10.4272 22.9008 9.29895 21.4648 8.66567C21.2103 8.55343 21.0862 8.39618 21.0622 8.15566C21.04 7.93353 21.1124 7.73136 21.1124 7.73136C21.2048 7.49413 21.1178 7.22464 20.9042 7.08621C20.6906 6.9477 20.409 6.97854 20.2303 7.15975C19.464 7.93704 18.6985 7.9512 17.0396 7.90935C15.9589 7.88195 14.6134 7.84797 12.8415 8.10144C10.3984 8.45091 9.31464 9.96099 8.83568 11.1662C8.35729 12.3699 8.38547 13.4947 8.39227 13.6542V16.7009C8.04923 16.7258 7.62607 16.8163 7.29119 17.0774C6.98614 17.3151 6.80314 17.6545 6.76194 18.0591C6.70771 18.5906 6.66364 19.9176 7.42326 20.7586C7.68652 21.0501 8.0189 21.2454 8.40107 21.3371V21.4492C8.40107 21.4749 8.40293 21.5007 8.40665 21.5261C8.41602 21.591 8.64896 23.1339 9.68143 24.7372C10.3429 25.7641 11.4284 26.9486 13.1454 27.6601V29.3725H10.4614C10.3694 29.372 8.25298 29.3762 6.5652 31.0519C5.24106 32.3666 4.56965 34.3098 4.56965 36.8275V37.9269H0.923027C0.626636 37.9269 0.386475 38.1671 0.386475 38.4635C0.386475 38.7598 0.626636 39 0.923027 39H31.0771C31.3735 39 31.6136 38.7598 31.6136 38.4635C31.6136 38.1671 31.3734 37.9269 31.077 37.9269ZM26.3571 36.8275V37.9269H19.2758V30.4456H21.449V32.5247C20.9873 32.6919 20.6083 33.044 20.3562 33.5496C20.1282 34.0069 20.0745 34.4395 20.0692 34.4872C20.0669 34.5071 20.0658 34.5271 20.0658 34.5471V36.0078C20.0658 36.3042 20.306 36.5444 20.6023 36.5444C20.8987 36.5444 21.1389 36.3042 21.1389 36.0078V34.5829C21.1624 34.4277 21.322 33.5747 21.9855 33.4933C22.6483 33.5745 22.8081 34.4253 22.8321 34.5831V36.0078C22.8321 36.3042 23.0723 36.5444 23.3687 36.5444C23.6651 36.5444 23.9052 36.3042 23.9052 36.0078V34.5471C23.9052 34.5271 23.9041 34.5071 23.9019 34.4872C23.8965 34.4395 23.8428 34.0068 23.6148 33.5496C23.3627 33.044 22.9837 32.6919 22.5221 32.5247V30.5957C23.1422 30.7591 23.9602 31.1002 24.6786 31.8134C25.7923 32.9192 26.3571 34.6062 26.3571 36.8275ZM15.9997 32.7581C16.8858 32.7581 17.6788 32.3522 18.2027 31.7166V37.9269H13.7617V31.6721C14.2848 32.3329 15.0933 32.7581 15.9997 32.7581ZM24.1578 18.168C24.2215 18.7932 24.1525 19.6131 23.7676 20.0394C23.716 20.0965 23.6596 20.1435 23.5989 20.183V17.7796C23.7652 17.7987 23.9316 17.8415 24.0376 17.9247C24.0888 17.9651 24.1432 18.0254 24.1578 18.168ZM9.83295 11.5626C10.3772 10.193 11.4407 9.38594 12.9936 9.16381C14.6762 8.92308 15.9718 8.95584 17.0126 8.98224C18.2258 9.01293 19.1929 9.0374 20.0649 8.60165C20.1928 9.01529 20.485 9.40648 21.0319 9.64764C22.079 10.1094 22.5258 10.8473 22.5258 12.1149V15.1139C21.5821 15.0311 20.8803 14.7216 20.4374 14.189C19.6381 13.2278 19.891 11.804 19.8933 11.7915C19.9401 11.5487 19.8148 11.3054 19.5901 11.2023C19.3653 11.0992 19.0992 11.1632 18.9457 11.3571C17.974 12.5852 16.5869 13.0512 14.8237 12.7418C13.4349 12.4982 12.3265 11.8494 12.316 11.8433C12.1733 11.7584 11.9995 11.7444 11.8451 11.8052C11.6907 11.866 11.5731 11.9948 11.5266 12.1541C11.0546 13.7722 10.0891 14.4132 9.46552 14.6643V13.6417C9.46552 13.6316 9.46523 13.6215 9.46466 13.6115C9.46402 13.6017 9.41401 12.6168 9.83295 11.5626ZM8.21971 20.0394C7.83476 19.6131 7.76579 18.7932 7.82953 18.168C7.84413 18.0254 7.8985 17.965 7.94979 17.9247C8.05839 17.8394 8.23066 17.7964 8.40121 17.778V20.191C8.33539 20.1501 8.2748 20.1004 8.21971 20.0394ZM10.6051 24.1892C9.76556 22.9006 9.51288 21.625 9.47417 21.4052V15.7925C10.209 15.5846 11.5833 14.9525 12.3461 13.064C12.8583 13.3029 13.6681 13.6244 14.606 13.793C16.2567 14.0896 17.6897 13.8046 18.8201 12.9671C18.8979 13.5648 19.1074 14.2638 19.6051 14.8665C20.2544 15.6526 21.2353 16.0971 22.5257 16.1914V17.4103V21.4051C22.4865 21.6274 22.2336 22.9018 21.3948 24.1891C20.1923 26.0347 18.394 27.0496 16.0497 27.2059H15.9501C13.606 27.0497 11.8076 26.0347 10.6051 24.1892ZM15.8979 28.278C15.9094 28.2787 15.921 28.2791 15.9326 28.2791H16.0674C16.079 28.2791 16.0905 28.2788 16.1021 28.278C16.7102 28.2386 17.2681 28.1469 17.7814 28.0156V29.8901C17.7812 29.8948 17.7807 29.8993 17.7807 29.904C17.7807 30.886 16.9817 31.6851 15.9996 31.6851C15.0176 31.6851 14.2186 30.886 14.2186 29.904V28.0156C14.7318 28.1469 15.2898 28.2386 15.8979 28.278ZM10.2529 33.6353C10.7723 33.6353 11.1949 34.0579 11.1949 34.5773C11.1949 35.0967 10.7723 35.5193 10.2529 35.5193C9.73344 35.5193 9.31092 35.0968 9.31092 34.5773C9.31092 34.0579 9.73344 33.6353 10.2529 33.6353ZM5.6429 36.8275C5.6429 31.9857 8.36222 30.8169 9.71627 30.5351V32.6353C8.86494 32.8709 8.23774 33.6519 8.23774 34.5772C8.23774 35.6883 9.14173 36.5923 10.2528 36.5923C11.3639 36.5923 12.2679 35.6884 12.2679 34.5772C12.2679 33.6519 11.6407 32.8708 10.7894 32.6353V30.4456H12.6885V37.9269H5.6429V36.8275Z" fill="white"/>
<path d="M12.1915 17.6291C12.5452 17.6291 12.8319 17.3424 12.8319 16.9887C12.8319 16.635 12.5452 16.3483 12.1915 16.3483C11.8378 16.3483 11.551 16.635 11.551 16.9887C11.551 17.3424 11.8378 17.6291 12.1915 17.6291Z" fill="white"/>
<path d="M19.8086 17.6291C20.1622 17.6291 20.4489 17.3424 20.4489 16.9888C20.4489 16.6351 20.1622 16.3484 19.8086 16.3484C19.4549 16.3484 19.1682 16.6351 19.1682 16.9888C19.1682 17.3424 19.4549 17.6291 19.8086 17.6291Z" fill="white"/>
<path d="M19.3263 23.6234C19.5124 23.3927 19.4762 23.0549 19.2455 22.8689C19.0147 22.6828 18.6769 22.7191 18.491 22.9497C18.4853 22.9569 17.8408 23.6607 16.1322 23.6607C14.3574 23.6607 13.4922 22.9242 13.4499 22.8872C13.2309 22.6906 12.8937 22.707 12.695 22.925C12.4953 23.144 12.511 23.4834 12.73 23.683C12.777 23.7259 13.908 24.7338 16.1322 24.7338C18.3662 24.7338 19.2346 23.737 19.3263 23.6234Z" fill="white"/>
<path d="M15.8617 20.7609H16.1383C16.8484 20.7609 17.4261 20.1832 17.4261 19.4731C17.4261 19.1768 17.1859 18.9366 16.8895 18.9366C16.5931 18.9366 16.353 19.1768 16.353 19.4731C16.353 19.5915 16.2567 19.6878 16.1383 19.6878H15.8617C15.7434 19.6878 15.6471 19.5915 15.6471 19.4731C15.6471 19.1768 15.4069 18.9366 15.1105 18.9366C14.8141 18.9366 14.574 19.1768 14.574 19.4731C14.574 20.1832 15.1517 20.7609 15.8617 20.7609Z" fill="white"/>
<path d="M10.2529 34.9111C10.4372 34.9111 10.5867 34.7617 10.5867 34.5773C10.5867 34.3929 10.4372 34.2435 10.2529 34.2435C10.0685 34.2435 9.91907 34.3929 9.91907 34.5773C9.91907 34.7617 10.0685 34.9111 10.2529 34.9111Z" fill="white"/>
</g>
<path d="M24.621 11.909L26.377 11.798L26.398 13.189L27.632 12.974L27.039 4.182L22.443 13.735L23.936 13.568L24.621 11.909ZM26.354 7.904V10.534L25.239 10.636L26.354 7.904Z" fill="white"/>
<path d="M31.305 11.218C31.305 11.218 31.489 10.249 30.046 9.159C30.046 9.159 29.388 8.237 30.524 8.283C30.524 8.283 30.739 8.26 31.141 8.498L31.448 7.596C31.448 7.596 30.524 6.648 29.409 7.405C29.409 7.405 28.461 7.785 28.604 8.853C28.627 9.018 28.413 9.279 29.459 10.25C29.459 10.25 30.025 10.961 29.752 11.365C29.752 11.365 29.752 11.799 28.34 11.459L28.059 12.572C28.059 12.572 30.855 13.157 31.305 11.218Z" fill="white"/>
<path d="M31.568 12.295L32.679 12.193L33.153 10.008L33.845 12.003L35.263 11.798L34.292 9.271L35.905 6.932H34.578L33.3 8.78L34.22 3.638H32.898L31.448 12.295H31.568Z" fill="white"/>
<path d="M20.049 0L22.9999 15L38.6299 18.679V0H20.049ZM38.084 18.118L22.9999 15L20.571 0.512H38.084V18.118Z" fill="white"/>
<defs>
<clipPath id="clip0">
<rect width="32" height="32" fill="white" transform="translate(0 7)"/>
</clipPath>
</defs>
</svg>
