<svg width="14" height="24" viewBox="0 0 14 24" fill="none" xmlns="http://www.w3.org/2000/svg">
<path d="M12.3023 0H1.72399C1.29119 0 0.94043 0.368766 0.94043 0.823781V4.86038C0.94043 5.31539 1.29119 5.68416 1.72399 5.68416H12.3023C12.7351 5.68416 13.0859 5.31539 13.0859 4.86038V0.823781C13.0859 0.368766 12.7351 0 12.3023 0ZM11.5188 4.03659H2.50756V1.64761H11.5187V4.03659H11.5188Z" fill="white"/>
<path d="M11.1792 4.88806H9.61206V8.67753H11.1792V4.88806Z" fill="white"/>
<path d="M4.38822 4.88806H2.82104V8.67753H4.38822V4.88806Z" fill="white"/>
<path d="M12.694 7.85352H1.30598C0.585867 7.85352 0 8.46945 0 9.22653V22.627C0 23.3841 0.585867 24 1.30598 24H12.694C13.4141 24 14 23.3841 14 22.627V9.22653C14 8.46945 13.4141 7.85352 12.694 7.85352ZM12.4328 22.3524H1.56717V9.50112H12.4328V22.3524Z" fill="white"/>
<path d="M7.00012 12.1647C6.56732 12.1647 6.21655 12.5334 6.21655 12.9885V18.8649C6.21655 19.3199 6.56732 19.6887 7.00012 19.6887C7.43292 19.6887 7.78368 19.3199 7.78368 18.8649V12.9885C7.78368 12.5334 7.43292 12.1647 7.00012 12.1647Z" fill="white"/>
<path d="M9.79498 15.103H4.20544C3.77264 15.103 3.42188 15.4718 3.42188 15.9268C3.42188 16.3818 3.77264 16.7506 4.20544 16.7506H9.79498C10.2281 16.7506 10.5785 16.3818 10.5785 15.9268C10.5785 15.4718 10.2278 15.103 9.79498 15.103Z" fill="white"/>
</svg>
