<svg width="32" height="32" viewBox="0 0 32 32" fill="none" xmlns="http://www.w3.org/2000/svg">
<path d="M21.5961 5.74255V6.58388L22.3351 6.18173C22.8154 5.92035 23.3635 5.77127 23.9467 5.77127C25.8192 5.77127 27.3475 7.30343 27.3475 9.19079C27.3475 10.5233 26.414 11.9079 25.1787 13.1325C23.9648 14.3358 22.5621 15.2843 21.8302 15.7442L21.5962 15.8912V16.1675V22.8952C21.5962 24.7329 20.1004 26.2287 18.2627 26.2287H16.825H16.325V26.7287V27.421C16.325 27.7329 16.072 27.9859 15.7601 27.9859H14.1894H13.6894V28.4859V30.9351C13.6894 31.247 13.4364 31.5 13.1245 31.5C12.8125 31.5 12.5595 31.247 12.5595 30.9351V28.4859V27.9859H12.0595H10.4888C10.177 27.9859 9.92398 27.733 9.92398 27.421V26.7287V26.2287H9.42398H7.98635C6.14855 26.2287 4.65271 24.7329 4.65271 22.8952V5.59073C4.65271 3.75304 6.14857 2.25709 7.98635 2.25709H10.5117H10.8473L10.9744 1.9464C11.3217 1.0975 12.1557 0.5 13.1243 0.5C14.0931 0.5 14.927 1.09749 15.2744 1.94644L15.4015 2.25709H15.7371H18.2626C20.0755 2.25709 21.5961 3.87943 21.5961 5.74255ZM19.7479 6.10979L20.4663 6.45863V5.66001C20.4663 4.47061 19.5036 3.38687 18.2626 3.38698C18.2625 3.38698 18.2625 3.38698 18.2625 3.38698H7.98635C6.77085 3.38698 5.78249 4.375 5.78249 5.59073V7.02826V7.52826H6.28249H7.85318C8.16522 7.52826 8.41812 7.78117 8.41812 8.0932C8.41812 8.40509 8.16525 8.65803 7.85318 8.65803H6.28249H5.78249V9.15803V10.5423V11.0423H6.28249H9.61038C9.92224 11.0423 10.1752 11.2953 10.1752 11.6073C10.1752 11.9193 9.92224 12.1722 9.61038 12.1722H6.28249H5.78249V12.6722V14.0566V14.5566H6.28249H7.85318C8.16525 14.5566 8.41812 14.8096 8.41812 15.1215C8.41812 15.4335 8.16521 15.6864 7.85318 15.6864H6.28249H5.78249V16.1864V17.5707V18.0707H6.28249H9.61038C9.92224 18.0707 10.1752 18.3236 10.1752 18.6356C10.1752 18.9476 9.92224 19.2006 9.61038 19.2006H6.28249H5.78249V19.7006V21.0849V21.5849H6.28249H7.85318C8.16518 21.5849 8.41812 21.8379 8.41812 22.1498C8.41812 22.4618 8.16518 22.7148 7.85318 22.7148H6.31363H5.70937L5.82246 23.3083C6.01638 24.3261 6.91074 25.0992 7.98635 25.0992H10.4888H15.76H18.2626C19.478 25.0992 20.4663 24.111 20.4663 22.8953V16.0657V15.7923L20.2361 15.6448C19.4432 15.1365 18.0807 14.1879 16.9221 13.0102C15.7444 11.8131 14.8748 10.4767 14.8748 9.19079C14.8748 7.30346 16.4032 5.77127 18.2758 5.77127C18.8033 5.77127 19.3019 5.89322 19.7479 6.10979ZM20.8425 14.6936L21.1115 14.8652L21.3804 14.6936C22.3883 14.0504 23.5712 13.1579 24.5089 12.212C24.9776 11.7393 25.3966 11.2416 25.7014 10.7445C26.0024 10.2535 26.2176 9.72157 26.2176 9.19079C26.2176 7.93263 25.204 6.90105 23.9465 6.90105C22.6889 6.90105 21.6761 7.93286 21.6761 9.19079C21.6761 9.50271 21.4232 9.75562 21.1113 9.75562C20.7992 9.75562 20.5464 9.50268 20.5464 9.19079C20.5464 7.93279 19.5334 6.90105 18.2757 6.90105C17.0181 6.90105 16.0045 7.93261 16.0045 9.19079C16.0045 9.72161 16.2197 10.2536 16.5208 10.7446C16.8256 11.2417 17.2447 11.7394 17.7135 12.2121C18.6513 13.158 19.8343 14.0505 20.8425 14.6936Z" stroke="white"/>
</svg>
