<svg width="24" height="18" viewBox="0 0 24 18" fill="none" xmlns="http://www.w3.org/2000/svg">
<path d="M21.3333 0H2.66667C1.95942 0 1.28115 0.280897 0.781049 0.780898C0.280952 1.2809 0 1.95905 0 2.66615L0 5.33231H24V2.66615C24 1.95905 23.719 1.2809 23.219 0.780898C22.7189 0.280897 22.0406 0 21.3333 0Z" fill="#CC162B"/>
<path d="M0 14.6638C0 15.371 0.280952 16.0491 0.781049 16.5491C1.28115 17.0491 1.95942 17.33 2.66667 17.33H21.3333C22.0406 17.33 22.7189 17.0491 23.219 16.5491C23.719 16.0491 24 15.371 24 14.6638V11.9977H0V14.6638Z" fill="#3C762C"/>
<path d="M0 10.6646H24V11.9977H0V10.6646ZM0 5.33231H24V6.66538H0V5.33231Z" fill="#EEEEEE"/>
<path d="M0 6.66539H24V10.6646H0V6.66539Z" fill="#0D218A"/>
</svg>
