<svg width="24" height="18" viewBox="0 0 24 18" fill="none" xmlns="http://www.w3.org/2000/svg">
<path d="M21.3333 0.666664H2.66667C1.95942 0.666664 1.28115 0.947562 0.781049 1.44756C0.280952 1.94756 0 2.62571 0 3.33282L0 6.66551H24V3.33282C24 2.62571 23.719 1.94756 23.219 1.44756C22.7189 0.947562 22.0406 0.666664 21.3333 0.666664Z" fill="#CC212D"/>
<path d="M10.282 11.9978H13.7387L12.0107 10.7421L10.282 11.9978ZM12.6733 8.70445H14.8167L13.0827 9.96354L13.7433 11.9978H24V6.66551H12.0107L12.6733 8.70445ZM10.9387 9.96354L9.20467 8.70445H11.348L12.0107 6.66551H0V11.9978H10.2773L10.9387 9.96354Z" fill="#FBD116"/>
<path d="M13.7447 12.0018L13.7387 11.9978H10.2813L10.2753 12.0018L10.2773 11.9978H0V15.3305C0 16.0376 0.280952 16.7158 0.781049 17.2158C1.28115 17.7158 1.95942 17.9967 2.66667 17.9967H21.3333C22.0406 17.9967 22.7189 17.7158 23.219 17.2158C23.719 16.7158 24 16.0376 24 15.3305V11.9978H13.7433L13.7447 12.0018Z" fill="#288541"/>
<path d="M9.20471 8.70445L10.9387 9.96354L10.2774 11.9978L10.276 12.0018L10.282 11.9978L12.0107 10.7421L13.7387 11.9978L13.7447 12.0018L13.7434 11.9978L13.0827 9.96354L14.8167 8.70445H12.6734L12.0107 6.66551L11.348 8.70445H9.20471Z" fill="black"/>
</svg>
