<svg width="28" height="28" viewBox="0 0 28 28" fill="none" xmlns="http://www.w3.org/2000/svg">
<path fill-rule="evenodd" clip-rule="evenodd" d="M27.44 14.3182C27.44 13.3255 27.3509 12.3709 27.1855 11.4546H14V16.87H21.5345C21.21 18.62 20.2236 20.1027 18.7409 21.0955V24.6082H23.2655C25.9127 22.1709 27.44 18.5818 27.44 14.3182Z" fill="#4285F4"/>
<path fill-rule="evenodd" clip-rule="evenodd" d="M13.9996 27.9999C17.7796 27.9999 20.9487 26.7463 23.2651 24.6081L18.7405 21.0954C17.4869 21.9354 15.8833 22.4318 13.9996 22.4318C10.3533 22.4318 7.26689 19.969 6.16598 16.6599H1.48871V20.2872C3.79234 24.8627 8.52689 27.9999 13.9996 27.9999Z" fill="#34A853"/>
<path fill-rule="evenodd" clip-rule="evenodd" d="M6.16636 16.6599C5.88636 15.8199 5.72727 14.9226 5.72727 13.9999C5.72727 13.0772 5.88636 12.1799 6.16636 11.3399V7.71265H1.48909C0.540909 9.60265 0 11.7408 0 13.9999C0 16.259 0.540909 18.3972 1.48909 20.2872L6.16636 16.6599Z" fill="#FBBC05"/>
<path fill-rule="evenodd" clip-rule="evenodd" d="M13.9996 5.56818C16.0551 5.56818 17.9005 6.27454 19.3514 7.66182L23.3669 3.64636C20.9423 1.38727 17.7733 0 13.9996 0C8.52689 0 3.79234 3.13727 1.48871 7.71273L6.16598 11.34C7.26689 8.03091 10.3533 5.56818 13.9996 5.56818Z" fill="#EA4335"/>
</svg>
