<svg width="32" height="32" viewBox="0 0 32 32" fill="none" xmlns="http://www.w3.org/2000/svg">
<path d="M13.2739 1.02125H18.8662C19.1482 1.02125 19.3768 0.792624 19.3768 0.510624C19.3768 0.228625 19.1482 0 18.8661 0H13.2738C12.9918 0 12.7632 0.228625 12.7632 0.510624C12.7632 0.792624 12.9918 1.02125 13.2739 1.02125Z" fill="white"/>
<path d="M28.2129 30.9787H26.6429V27.9717C28.2598 27.7249 29.5024 26.3249 29.5024 24.6401C29.5024 22.9554 28.2598 21.5554 26.6429 21.3086V14.2253C26.6429 11.047 24.0571 8.46121 20.8788 8.46121H19.3768V2.55316C19.3768 2.27116 19.1482 2.04253 18.8662 2.04253H13.2739C12.9919 2.04253 12.7633 2.27116 12.7633 2.55316V13.1945H12.5931C12.3111 13.1945 12.0825 13.4231 12.0825 13.7051C12.0825 13.9871 12.3111 14.2158 12.5931 14.2158H13.5249V16.0745C13.5249 16.3565 13.7535 16.5851 14.0355 16.5851H18.1046C18.3866 16.5851 18.6152 16.3565 18.6152 16.0745V14.2158H19.5471C19.8291 14.2158 20.0577 13.9871 20.0577 13.7051C20.0577 13.4231 19.8291 13.1945 19.5471 13.1945H19.3769V9.48246H20.8788C23.494 9.48246 25.6217 11.61 25.6217 14.2253V21.3086C24.0048 21.5554 22.7621 22.9553 22.7621 24.6401C22.7621 26.3249 24.0048 27.7249 25.6217 27.9717V30.9787H3.60743C3.81737 30.3949 4.37662 29.9763 5.03174 29.9763H24.0897C24.3717 29.9763 24.6003 29.7477 24.6003 29.4657C24.6003 29.1837 24.3717 28.955 24.0897 28.955H18.6152V19.9894H22.8473V20.1596C22.8473 20.4416 23.076 20.6702 23.358 20.6702C23.64 20.6702 23.8686 20.4416 23.8686 20.1596V14.2253C23.8686 12.5766 22.5273 11.2354 20.8787 11.2354C20.5967 11.2354 20.3681 11.464 20.3681 11.746C20.3681 12.028 20.5967 12.2566 20.8787 12.2566C21.9642 12.2566 22.8473 13.1398 22.8473 14.2253V18.9681H10.484C10.202 18.9681 9.97342 19.1968 9.97342 19.4788C9.97342 19.7607 10.202 19.9894 10.484 19.9894H17.5939V26.8402H14.0355C13.7535 26.8402 13.5249 27.0689 13.5249 27.3509C13.5249 27.6329 13.7535 27.8615 14.0355 27.8615H17.5939V28.9549H5.0318C3.63443 28.9549 2.49756 30.0918 2.49756 31.4892C2.49756 31.7712 2.72618 31.9998 3.00818 31.9998H28.2129C28.4949 31.9998 28.7236 31.7712 28.7236 31.4892C28.7236 31.2072 28.4949 30.9787 28.2129 30.9787ZM17.5939 15.5639H14.5462V14.2159H17.5939V15.5639ZM13.7845 13.1945V3.06378H18.3555V13.1945H13.7845ZM23.7833 24.6401C23.7833 23.345 24.8368 22.2914 26.1318 22.2911C26.1319 22.2911 26.1321 22.2911 26.1323 22.2911C26.1325 22.2911 26.1325 22.2911 26.1327 22.2911C27.4277 22.2913 28.4812 23.345 28.4812 24.6401C28.4812 25.9352 27.4274 26.989 26.1323 26.989C24.837 26.989 23.7833 25.9353 23.7833 24.6401Z" fill="white"/>
</svg>
