<svg width="24" height="19" viewBox="0 0 24 19" fill="none" xmlns="http://www.w3.org/2000/svg">
<path d="M23.7947 16.6857H0.205333C0.40776 17.1716 0.749512 17.5867 1.18752 17.8787C1.62553 18.1707 2.1402 18.3266 2.66667 18.3267H21.3333C21.8598 18.3266 22.3745 18.1707 22.8125 17.8787C23.2505 17.5867 23.5922 17.1716 23.7947 16.6857ZM0 13.5349H24V15.2419H0V13.5349ZM7.66667 4.08208H24V5.78908H7.66667V4.08208ZM23.7947 2.63769C23.5922 2.15179 23.2505 1.73667 22.8125 1.44464C22.3745 1.15261 21.8598 0.996739 21.3333 0.996674H7.66667V2.63769H23.7947ZM7.66667 7.23281H24V8.93981H7.66667V7.23281ZM0 10.3835H24V12.0905H0V10.3835Z" fill="#BF0A30"/>
<path d="M7.66667 5.78842H24V7.23281H7.66667V5.78842ZM0 8.93982V10.3835H24V8.93982H8H0ZM7.66667 2.6377V4.08208H24V3.66283C24 3.29957 23.926 2.95363 23.7947 2.6377H7.66667ZM0 12.0905H24V13.5349H0V12.0905ZM0 15.6605C0 16.0238 0.074 16.3697 0.205333 16.6857H23.794C23.93 16.361 24 16.0125 24 15.6605V15.2413H0V15.6605Z" fill="#EEEEEE"/>
<path d="M2.66667 0.996674C1.95942 0.996674 1.28115 1.27757 0.781049 1.77757C0.280952 2.27757 0 2.95572 0 3.66283L0 8.93981H8V0.996674H2.66667Z" fill="#002868"/>
<path d="M4.52933 4.49267L4 2.86432L3.47067 4.49267H1.75867L3.144 5.49914L2.61467 7.1275L4 6.12102L5.38533 7.1275L4.856 5.49914L6.24133 4.49267H4.52933Z" fill="white"/>
</svg>
