<svg width="24" height="24" viewBox="0 0 24 24" fill="none" xmlns="http://www.w3.org/2000/svg">
<path d="M12 2.4108C8.6856 2.4108 6 5.0856 6 8.3988C6 14.1276 12 21.5988 12 21.5988C12 21.5988 18 14.1264 18 8.3988C18 5.0868 15.3144 2.4108 12 2.4108ZM12 11.712C11.1407 11.712 10.3166 11.3706 9.70897 10.763C9.10136 10.1554 8.76 9.3313 8.76 8.472C8.76 7.6127 9.10136 6.78859 9.70897 6.18097C10.3166 5.57335 11.1407 5.232 12 5.232C12.8593 5.232 13.6834 5.57335 14.291 6.18097C14.8986 6.78859 15.24 7.6127 15.24 8.472C15.24 9.3313 14.8986 10.1554 14.291 10.763C13.6834 11.3706 12.8593 11.712 12 11.712Z" fill="black"/>
</svg>
