<svg width="20" height="20" viewBox="0 0 20 20" fill="none" xmlns="http://www.w3.org/2000/svg">
<path fill-rule="evenodd" clip-rule="evenodd" d="M11.6262 4.47751L15.6495 9.47751C15.8987 9.78668 15.8945 10.2283 15.6403 10.5333L11.4737 15.5333C11.3087 15.7308 11.072 15.8333 10.8328 15.8333C10.6453 15.8333 10.4562 15.77 10.3003 15.64C9.94618 15.3458 9.89868 14.82 10.1937 14.4667L13.9237 9.99085L10.327 5.52251C10.0387 5.16418 10.0953 4.63918 10.4545 4.35085C10.8128 4.06168 11.337 4.11918 11.6262 4.47751ZM4.62111 4.35092C4.97944 4.06258 5.50361 4.11925 5.79278 4.47758L9.81611 9.47758C10.0644 9.78675 10.0611 10.2284 9.80694 10.5334L5.64028 15.5334C5.47528 15.7309 5.23861 15.8334 4.99944 15.8334C4.81194 15.8334 4.62278 15.7701 4.46694 15.6401C4.11278 15.3459 4.06528 14.8201 4.36028 14.4668L8.08944 9.99092L4.49361 5.52258C4.20528 5.16425 4.26278 4.63925 4.62111 4.35092Z" fill="white"/>
<path d="M15.6495 9.47751L15.26 9.79097L15.2602 9.79127L15.6495 9.47751ZM11.6262 4.47751L12.0157 4.16406L12.0153 4.16351L11.6262 4.47751ZM15.6403 10.5333L15.2562 10.2133L15.6403 10.5333ZM11.4737 15.5333L11.8574 15.8539L11.8578 15.8534L11.4737 15.5333ZM10.3003 15.64L10.6206 15.2561L10.6198 15.2554L10.3003 15.64ZM10.1937 14.4667L10.5775 14.7871L10.5778 14.7868L10.1937 14.4667ZM13.9237 9.99085L14.3078 10.3109L14.57 9.99635L14.3132 9.67733L13.9237 9.99085ZM10.327 5.52251L9.93746 5.83596L9.93751 5.83603L10.327 5.52251ZM10.4545 4.35085L10.7675 4.74075L10.7685 4.73995L10.4545 4.35085ZM5.79278 4.47758L6.18232 4.16413L6.18188 4.16358L5.79278 4.47758ZM4.62111 4.35092L4.93456 4.74047L4.62111 4.35092ZM9.81611 9.47758L10.2059 9.16447L10.2057 9.16413L9.81611 9.47758ZM9.80694 10.5334L9.42283 10.2133L9.80694 10.5334ZM5.64028 15.5334L6.02399 15.854L6.02439 15.8535L5.64028 15.5334ZM4.46694 15.6401L4.78724 15.2561L4.78641 15.2555L4.46694 15.6401ZM4.36028 14.4668L4.74409 14.7872L4.74442 14.7868L4.36028 14.4668ZM8.08944 9.99092L8.47358 10.311L8.73566 9.99642L8.47898 9.67745L8.08944 9.99092ZM4.49361 5.52258L4.10406 5.83603L4.10408 5.83605L4.49361 5.52258ZM16.0391 9.16406L12.0157 4.16406L11.2366 4.79097L15.26 9.79097L16.0391 9.16406ZM16.0245 10.8534C16.4308 10.3659 16.4379 9.65893 16.0388 9.16376L15.2602 9.79127C15.3595 9.91443 15.3582 10.0908 15.2562 10.2133L16.0245 10.8534ZM11.8578 15.8534L16.0245 10.8534L15.2562 10.2133L11.0896 15.2133L11.8578 15.8534ZM10.8328 16.3333C11.2147 16.3333 11.5939 16.1692 11.8574 15.8539L11.09 15.2128C11.0234 15.2924 10.9293 15.3333 10.8328 15.3333V16.3333ZM9.98005 16.024C10.229 16.2316 10.5325 16.3333 10.8328 16.3333V15.3333C10.7582 15.3333 10.6834 15.3084 10.6206 15.2561L9.98005 16.024ZM9.80986 14.1462C9.33788 14.7115 9.41352 15.5534 9.98087 16.0246L10.6198 15.2554C10.4788 15.1383 10.4595 14.9285 10.5775 14.7871L9.80986 14.1462ZM13.5396 9.67075L9.80957 14.1466L10.5778 14.7868L14.3078 10.3109L13.5396 9.67075ZM9.93751 5.83603L13.5342 10.3044L14.3132 9.67733L10.7165 5.209L9.93751 5.83603ZM10.1415 3.96094C9.56662 4.42245 9.47603 5.26252 9.93746 5.83596L10.7166 5.20906C10.6013 5.06584 10.6241 4.85592 10.7675 4.74075L10.1415 3.96094ZM12.0153 4.16351C11.5537 3.59157 10.715 3.49812 10.1405 3.96174L10.7685 4.73995C10.9107 4.62524 11.1203 4.64679 11.2371 4.79151L12.0153 4.16351ZM6.18188 4.16358C5.71981 3.59098 4.88134 3.49976 4.30766 3.96137L4.93456 4.74047C5.07755 4.62541 5.28741 4.64752 5.40367 4.79158L6.18188 4.16358ZM10.2057 9.16413L6.18232 4.16413L5.40323 4.79104L9.42656 9.79104L10.2057 9.16413ZM10.1911 10.8535C10.5979 10.3653 10.6029 9.65872 10.2059 9.16447L9.42629 9.7907C9.52596 9.91478 9.52428 10.0916 9.42283 10.2133L10.1911 10.8535ZM6.02439 15.8535L10.1911 10.8535L9.42283 10.2133L5.25617 15.2133L6.02439 15.8535ZM4.99944 16.3334C5.38133 16.3334 5.76055 16.1693 6.02399 15.854L5.25656 15.2128C5.19 15.2925 5.09589 15.3334 4.99944 15.3334V16.3334ZM4.14665 16.024C4.39557 16.2317 4.69912 16.3334 4.99944 16.3334V15.3334C4.92477 15.3334 4.84998 15.3085 4.78724 15.2561L4.14665 16.024ZM3.97646 14.1463C3.50448 14.7116 3.58012 15.5535 4.14748 16.0247L4.78641 15.2555C4.64543 15.1384 4.62607 14.9286 4.74409 14.7872L3.97646 14.1463ZM7.7053 9.67086L3.97614 14.1467L4.74442 14.7868L8.47358 10.311L7.7053 9.67086ZM4.10408 5.83605L7.69991 10.3044L8.47898 9.67745L4.88314 5.20911L4.10408 5.83605ZM4.30766 3.96137C3.73476 4.42235 3.64215 5.26199 4.10406 5.83603L4.88316 5.20913C4.7684 5.06651 4.7908 4.85615 4.93456 4.74047L4.30766 3.96137Z" fill="white"/>
</svg>
