<svg width="24" height="18" viewBox="0 0 24 18" fill="none" xmlns="http://www.w3.org/2000/svg">
<path d="M2.66667 0.333328C1.95942 0.333328 1.28115 0.61428 0.781049 1.11438C0.280952 1.61447 0 2.29275 0 2.99999L0 15C0 15.7072 0.280952 16.3855 0.781049 16.8856C1.28115 17.3857 1.95942 17.6667 2.66667 17.6667H8V0.333328H2.66667Z" fill="#009A49"/>
<path d="M8 0.333328H16V17.6667H8V0.333328Z" fill="#EEEEEE"/>
<path d="M21.3333 0.333328H16V17.6667H21.3333C22.0406 17.6667 22.7189 17.3857 23.219 16.8856C23.719 16.3855 24 15.7072 24 15V2.99999C24 2.29275 23.719 1.61447 23.219 1.11438C22.7189 0.61428 22.0406 0.333328 21.3333 0.333328Z" fill="#009A49"/>
</svg>
