<svg width="24" height="24" viewBox="0 0 24 24" fill="none" xmlns="http://www.w3.org/2000/svg">
<path d="M2.2124 23.25C0.974904 23.25 0.412404 22.35 0.974904 21.2625L10.9874 1.575C11.5499 0.4875 12.4499 0.4875 13.0124 1.575L23.0249 21.2625C23.5874 22.35 23.0249 23.25 21.7874 23.25H2.2124Z" fill="#FFCE31"/>
<path d="M10.4252 8.85L11.4752 15.7875C11.5877 16.4625 12.4502 16.4625 12.5627 15.7875L13.5752 8.85C13.7627 6.15 10.2377 6.15 10.4252 8.85Z" fill="#231F20"/>
<path d="M12.0003 20.175C12.8701 20.175 13.5753 19.4698 13.5753 18.6C13.5753 17.7302 12.8701 17.025 12.0003 17.025C11.1304 17.025 10.4253 17.7302 10.4253 18.6C10.4253 19.4698 11.1304 20.175 12.0003 20.175Z" fill="#231F20"/>
</svg>
