<svg width="14" height="19" viewBox="0 0 14 19" fill="none" xmlns="http://www.w3.org/2000/svg">
<path d="M13.5714 2.77322C13.5714 2.95657 13.3661 3.10937 13.1095 3.10937H0.461962C0.205317 3.10937 0 2.95657 0 2.77322V0.336148C0 0.152794 0.205317 0 0.461962 0H13.1095C13.3661 0 13.5714 0.152794 13.5714 0.336148V2.77322ZM12.5448 0.435464H11.9186V2.66626H12.5448V0.435464ZM9.75254 0.435464H9.12632V2.66626H9.75254V0.435464ZM11.1487 0.435464H10.5225V2.66626H11.1487V0.435464Z" fill="#D5E2E1"/>
<path d="M12.5449 3.73583V18.3583C12.5449 18.7097 12.1548 19 11.662 19H1.90948C1.41672 19 1.01636 18.7097 1.01636 18.3583V3.73583H12.5449ZM11.4156 4.68316H2.16613V14.1488H11.4156V4.68316ZM9.14689 13.4154L8.17164 12.0937L7.19639 13.4154H6.29299L7.73021 11.4825L6.00555 9.14476C5.91316 9.1524 5.83103 9.16004 5.73864 9.16004H4.59913V11.6582H3.29537V5.6152H5.87209C7.4325 5.6152 8.11004 6.34098 8.11004 7.37234C8.11004 8.05228 7.77127 8.57942 7.15532 8.885L8.39749 10.581L9.34194 9.30519H10.2453L8.84918 11.1922L10.4815 13.4154H9.14689ZM6.81655 7.39526C6.81655 6.74588 6.46751 6.34862 5.43066 6.34862H4.59913V8.4419H5.52306C6.21087 8.43426 6.81655 8.15159 6.81655 7.39526Z" fill="#D5E2E1"/>
</svg>
