<svg width="18" height="24" viewBox="0 0 18 24" fill="none" xmlns="http://www.w3.org/2000/svg">
<path fill-rule="evenodd" clip-rule="evenodd" d="M0.6 0C0.44087 0 0.288258 0.0632142 0.175736 0.175736C0.0632142 0.288258 0 0.44087 0 0.6V23.4C0 23.5591 0.0632142 23.7117 0.175736 23.8243C0.288258 23.9368 0.44087 24 0.6 24H17.4C17.5591 24 17.7117 23.9368 17.8243 23.8243C17.9368 23.7117 18 23.5591 18 23.4V6.6C18 6.44088 17.9367 6.2883 17.8242 6.1758L11.8242 0.1758C11.7117 0.0632705 11.5591 3.39824e-05 11.4 0H0.6ZM1.2 22.8V1.2H10.8V6.6C10.8 6.75913 10.8632 6.91174 10.9757 7.02426C11.0883 7.13679 11.2409 7.2 11.4 7.2H16.8V22.8H1.2ZM15.9516 6L12 2.0484V6H15.9516ZM4.8 17.4H6V13.2H6.9516L9.9516 16.2L7.9758 18.1758L8.8242 19.0242L10.8 17.0484L12.7758 19.0242L13.6242 18.1758L11.6484 16.2L13.6242 14.2242L12.7758 13.3758L10.8 15.3516L8.637 13.1886C9.25064 13.1286 9.81764 12.8347 10.2204 12.3679C10.6232 11.9011 10.8309 11.2972 10.8004 10.6814C10.77 10.0655 10.5037 9.48509 10.0567 9.06034C9.60981 8.63559 9.01657 8.39913 8.4 8.4H5.4C5.24087 8.4 5.08826 8.46321 4.97574 8.57574C4.86321 8.68826 4.8 8.84087 4.8 9V17.4ZM8.4 12H6V9.6H8.4C8.71826 9.6 9.02348 9.72643 9.24853 9.95147C9.47357 10.1765 9.6 10.4817 9.6 10.8C9.6 11.1183 9.47357 11.4235 9.24853 11.6485C9.02348 11.8736 8.71826 12 8.4 12Z" fill="white"/>
</svg>
