<svg width="24" height="24" viewBox="0 0 24 24" fill="none" xmlns="http://www.w3.org/2000/svg">
<g clip-path="url(#clip0)">
<path d="M20.3826 7.94404L16.0555 3.61701C15.7607 3.3224 15.2837 3.32217 14.9888 3.6165L3.84424 14.736L4.91041 15.8047L15.5214 5.21751L18.7823 8.47864L8.1954 19.0894L9.26382 20.1556L20.3833 9.01072C20.6774 8.71583 20.6772 8.23836 20.3826 7.94404Z" fill="white"/>
<path d="M21.6658 3.39091L20.6092 2.3343C20.3632 2.08825 19.9813 2.04222 19.6839 2.22283L16.0361 4.43669L16.8193 5.72701L19.9606 3.82033L20.1795 4.03942L18.2731 7.18079L19.5634 7.96393L21.7773 4.31612C21.9578 4.01884 21.9118 3.63667 21.6658 3.39091Z" fill="white"/>
<path d="M10.672 20.498L3.50215 13.3282C3.20754 13.0333 2.72956 13.0333 2.435 13.3282C2.14016 13.6228 2.14016 14.1008 2.435 14.3953L9.6048 21.5651C9.75199 21.7125 9.94516 21.7862 10.1384 21.7862C10.3313 21.7862 10.5248 21.7125 10.672 21.5651C10.9668 21.2706 10.9668 20.7926 10.672 20.498Z" fill="white"/>
<path d="M10.4838 13.9073L3.44043 20.9766L4.50954 22.0418L11.5529 14.9724L10.4838 13.9073Z" fill="white"/>
<path d="M9.00042 12.4242L1.95703 19.4935L3.02614 20.5587L10.0695 13.4894L9.00042 12.4242Z" fill="white"/>
<path d="M6.26951 22.7117L1.28839 17.7303C0.993549 17.4357 0.515566 17.4353 0.220957 17.7303C-0.0736522 18.0249 -0.0736522 18.5026 0.220957 18.7975L5.20207 23.7789C5.34949 23.9263 5.54271 24 5.73588 24C5.92882 24 6.12232 23.9263 6.26946 23.7789C6.56412 23.4843 6.56412 23.0066 6.26951 22.7117Z" fill="white"/>
<path d="M23.779 0.221223C23.4841 -0.0736202 23.0066 -0.0736202 22.7118 0.221223L20.0703 2.86272C19.7754 3.15733 19.7754 3.63531 20.0703 3.92987C20.2177 4.07729 20.4106 4.15098 20.6038 4.15098C20.797 4.15098 20.9902 4.07725 21.1374 3.92987L23.7789 1.28838C24.0738 0.993815 24.0738 0.515832 23.779 0.221223Z" fill="white"/>
<path d="M8.75969 10.9879L7.69238 12.0552L11.9438 16.3066L13.0111 15.2393L8.75969 10.9879Z" fill="white"/>
</g>
<defs>
<clipPath id="clip0">
<rect width="24" height="24" fill="white"/>
</clipPath>
</defs>
</svg>
