<svg width="24" height="24" viewBox="0 0 24 24" fill="none" xmlns="http://www.w3.org/2000/svg">
<path d="M6.157 1.46015C5.87106 1.04465 5.30284 0.939702 4.88795 1.22531C4.25556 1.65998 3.75822 2.12508 3.36705 2.64647C3.06803 3.04523 3.14439 3.6104 3.53828 3.91551C3.70436 4.04418 3.90119 4.10653 4.09647 4.10653C4.36445 4.10653 4.62972 3.98911 4.80948 3.76401C5.11886 3.37711 5.51397 3.00965 5.92187 2.7292C6.1795 2.55215 6.31759 2.26622 6.31759 1.97573C6.31759 1.7978 6.26528 1.61803 6.157 1.46015Z" fill="black"/>
<path d="M21.8508 4.65858C21.2488 2.70998 19.8536 1.22283 18.1279 0.683531C15.8995 -0.0397969 13.9442 0.423469 12.5702 1.04522C11.4882 0.367734 10.196 0 8.87285 0C7.43196 0 6.05398 0.423703 4.88806 1.22527C4.33657 1.60458 3.8231 2.08003 3.40212 2.60198C3.35346 2.65795 3.31728 2.71209 3.28957 2.75925C2.30524 4.04897 1.7854 5.5763 1.7854 7.17872C1.7854 8.88853 2.39135 10.5418 3.4931 11.8394C3.52048 11.8796 3.55118 11.9225 3.58221 11.966C3.61446 12.0113 3.64671 12.056 3.67254 12.0949C3.68196 12.1089 3.69171 12.1226 3.70174 12.136C4.11298 12.6844 4.52121 14.7781 4.69549 15.6721C4.74143 15.9082 4.78188 16.1156 4.81474 16.2698C4.90113 16.7017 4.98903 17.1687 5.04621 17.6553C5.23756 19.3143 5.55753 20.6701 5.99253 21.6733C6.59754 23.1255 7.44893 23.9069 8.52331 23.9963C8.54857 23.9984 8.57412 23.9996 8.59934 23.9996H8.72103C10.0534 23.9996 10.7937 22.4669 11.3425 20.9672C11.347 20.9544 11.3513 20.942 11.3553 20.9292L12.1057 18.5609L12.8382 20.9237C12.8427 20.9383 12.8473 20.9529 12.8527 20.9675C13.3693 22.3793 14.1343 24 15.4739 24H15.5956C15.6218 24 15.6483 23.9988 15.6744 23.9967C16.413 23.9325 17.4508 23.4774 18.2013 21.6761C18.6092 20.7024 18.9097 19.4303 19.1479 17.6581C19.2057 17.1684 19.2935 16.7021 19.3778 16.2808C19.4125 16.1166 19.453 15.9097 19.4989 15.6742C19.6729 14.7796 20.0811 12.6854 20.4963 12.1318C22.1322 9.91697 22.6374 7.11998 21.8508 4.65858ZM19.0323 11.0415C18.4209 11.8576 18.0565 13.533 17.7075 15.3247C17.6637 15.5489 17.6254 15.7457 17.5904 15.9118C17.4964 16.3802 17.4006 16.8903 17.337 17.4296C17.1229 19.0236 16.8628 20.1484 16.5173 20.9722C16.2231 21.6785 15.8614 22.1241 15.5442 22.1749H15.5424C15.4438 22.0997 15.084 21.7484 14.5744 20.3617L13.2427 16.0645C13.2376 16.0475 13.2318 16.0307 13.2257 16.0143C13.0493 15.5434 12.6122 15.2395 12.1124 15.2395C11.6126 15.2395 11.1758 15.5434 10.9994 16.0143C10.9939 16.0286 10.9887 16.0435 10.9839 16.0587L9.62112 20.3589C9.09884 21.7813 8.75937 22.1073 8.66506 22.1749H8.64743C8.21304 22.1107 7.85412 21.3974 7.67192 20.96C7.3084 20.1217 7.02734 18.9067 6.85882 17.4445C6.79371 16.8918 6.6979 16.3814 6.60181 15.902C6.56895 15.7457 6.53032 15.5482 6.48654 15.3234C6.1407 13.5479 5.77962 11.8862 5.17765 11.0631C5.14479 11.0144 5.10589 10.9603 5.06721 10.9058C5.03529 10.8611 5.00332 10.8167 4.97778 10.7783C4.9571 10.7473 4.9346 10.7178 4.91023 10.6895C4.0722 9.71611 3.61048 8.46928 3.61048 7.17863C3.61048 5.97952 4.00104 4.83488 4.74082 3.86578C4.78282 3.81619 4.81474 3.76875 4.84001 3.72647C5.14479 3.35353 5.52748 3.00038 5.92231 2.72906C6.78256 2.13773 7.80274 1.82503 8.87285 1.82503C9.99954 1.82503 11.0894 2.18062 11.9414 2.82581C12.2247 3.04055 12.6067 3.07097 12.9194 2.90489C13.9849 2.34122 15.6549 1.79948 17.574 2.42184C18.753 2.79052 19.6762 3.80161 20.11 5.20509C20.7214 7.11848 20.3172 9.3022 19.0323 11.0415Z" fill="white"/>
</svg>
